<svg xmlns="http://www.w3.org/2000/svg" width="248" height="219.385" viewBox="0 0 248 219.385"><defs><style>.a{fill:none;}.b{fill:#27debf;}.c{fill:#f5f5f5;}.d,.m,.p,.q{fill:#fff;}.e,.f,.g,.h{fill:#407bff;}.f,.p{opacity:0.5;}.f,.g,.h,.k,.m,.p,.q{isolation:isolate;}.g,.j{opacity:0.2;}.h,.m{opacity:0.7;}.i{fill:#ebebeb;}.k{opacity:0.1;}.l{fill:#ff8b7b;}.n{fill:#263238;}.o{fill:#ff5652;}.q{opacity:0.8;}</style></defs><g transform="translate(-91.263 -2668.527)"><path class="a" d="M-6321.46,1296.338A18.058,18.058,0,0,1-6303.4,1314.4a18.058,18.058,0,0,1-18.058,18.058,18.058,18.058,0,0,1-18.058-18.058,18.058,18.058,0,0,1,18.058-18.058Z" transform="translate(6459.835 1438.931)"/><path class="b" d="M-6321.46,1296.338A18.058,18.058,0,0,1-6303.4,1314.4a18.057,18.057,0,0,1-18.058,18.057,18.058,18.058,0,0,1-18.058-18.057A18.058,18.058,0,0,1-6321.46,1296.338Z" transform="translate(6459.835 1438.931)"/><g transform="translate(91.263 2873.412)"><ellipse class="c" cx="124" cy="7.25" rx="124" ry="7.25"/></g><g transform="translate(99.027 2668.527)"><path class="d" d="M-6365.832,1183.792h214.144a8.824,8.824,0,0,1,8.818,8.828v137.55a8.824,8.824,0,0,1-8.819,8.829h-214.143a8.824,8.824,0,0,1-8.819-8.829V1192.621a8.824,8.824,0,0,1,8.819-8.829Z" transform="translate(6374.997 -1183.446)"/><path class="e" d="M-5981.479,1346.13h-.64v-5.786h.64Zm0-10.307h-.64v-11.948h.64Z" transform="translate(6216.191 -1240.017)"/><path class="e" d="M-6152.575,1339.111h-212.84a9.831,9.831,0,0,1-9.816-9.828V1193.037a9.834,9.834,0,0,1,9.816-9.826h212.84a9.833,9.833,0,0,1,9.816,9.826v136.246A9.83,9.83,0,0,1-6152.575,1339.111Zm-212.84-155.208a9.141,9.141,0,0,0-9.123,9.134v136.246a9.141,9.141,0,0,0,9.124,9.136h212.839a9.142,9.142,0,0,0,9.124-9.136V1193.037a9.141,9.141,0,0,0-9.125-9.137Z" transform="translate(6375.23 -1183.211)"/><path class="f" d="M-6288.049,1332.777h-3.229v-.693h3.229l.06.692Zm-6.457,0h-3.229v-.693h3.229Zm-6.458,0h-3.228v-.693h3.228Zm-6.457,0h-3.229v-.693h3.229Zm-6.458,0h-3.229v-.693h3.229Zm-6.458,0h-3.229v-.693h3.229Zm-6.457,0h-3.226v-.693h3.229Zm-6.457,0h-3.229v-.693h3.229Zm-6.458,0h-3.228v-.693h3.228Zm-6.457,0h-1.2a4.674,4.674,0,0,1-2.108-.5l.311-.618a3.993,3.993,0,0,0,1.8.423h1.2Zm61.332-1.268-.472-.506a4.005,4.005,0,0,0,1.265-2.615l.69.055a4.7,4.7,0,0,1-1.481,3.065Zm-66.935-1.75a4.7,4.7,0,0,1-.313-1.7v-1.621h.692v1.621a4.039,4.039,0,0,0,.268,1.447Zm68.431-4.571h-.692v-3.229h.692Zm-68.053-1.973h-.692v-3.228h.692Zm68.053-4.485h-.692V1315.5h.692Zm-68.053-1.973h-.692v-3.229h.692Zm68.053-4.484h-.692v-3.229h.692Zm-68.053-1.973h-.692v-3.229h.692Zm68.053-4.484h-.692v-3.229h.692Zm-68.053-1.973h-.692v-3.229h.692Zm68.053-4.484h-.692v-3.229h.692Zm-68.053-1.971h-.692v-3.229h.692Zm68.053-4.484h-.692v-3.229h.692Zm-68.053-1.977h-.692V1287.7h.692Zm68.053-4.484h-.692v-3.229h.692Zm-68.053-1.973h-.692v-3.229h.692Zm68.053-4.484h-.692v-3.228h.692Zm-68.053-1.973h-.692v-3.229h.692Zm68.053-4.484h-.692V1270.3h.692Zm-68.053-1.973h-.692v-3.229h.692Zm68.053-4.484h-.692v-3.228h.692Zm-68.053-1.973h-.692v-3.229h.692Zm68.053-4.484h-.692v-3.229h.692Zm-68.053-1.977h-.692v-3.229h.692Zm68.053-4.484h-.692v-1.6a3.986,3.986,0,0,0-.277-1.468l.644-.253a4.675,4.675,0,0,1,.325,1.721Zm-68.038-1.942-.689-.06a4.694,4.694,0,0,1,1.5-3.056l.469.508A4.006,4.006,0,0,0-6351.373,1252.212Zm65.1-3.26a3.967,3.967,0,0,0-1.777-.413h-1.229v-.693h1.228a4.656,4.656,0,0,1,2.083.484Zm-6.236-.413h-3.228v-.693h3.228Zm-6.457,0h-3.229v-.693h3.229Zm-6.458,0h-3.229v-.693h3.229Zm-6.457,0h-3.229v-.693h3.229Zm-6.458,0h-3.228v-.693h3.229Zm-6.457,0h-3.229v-.693h3.229Zm-6.457,0h-3.229v-.693h3.229Zm-6.458,0h-3.228v-.693h3.226Zm-6.457,0h-3.2l-.025-.692h3.229Z" transform="translate(6365.881 -1209.314)"/><path class="e" d="M-6348.03,1198.473a3.057,3.057,0,0,1-3.057,3.057,3.057,3.057,0,0,1-3.056-3.057,3.056,3.056,0,0,1,3.056-3.056h0A3.056,3.056,0,0,1-6348.03,1198.473Z" transform="translate(6366.715 -1188.14)"/><path class="g" d="M-6321.6,1201.12h-14.991a1.794,1.794,0,0,1-1.789-1.788h0a1.793,1.793,0,0,1,1.789-1.789h14.991a1.792,1.792,0,0,1,1.789,1.789h0A1.792,1.792,0,0,1-6321.6,1201.12Z" transform="translate(6360.347 -1188.999)"/><path class="g" d="M-6196.764,1200.861h-10.52a.982.982,0,0,1-.981-.981h0a.981.981,0,0,1,.981-.98h10.521a.98.98,0,0,1,.98.98h0a.98.98,0,0,1-.979.981Z" transform="translate(6307.676 -1189.547)"/><path class="g" d="M-6157.164,1200.861h-10.521a.981.981,0,0,1-.981-.98h0a.98.98,0,0,1,.981-.98h10.521a.98.98,0,0,1,.979.98h0a.98.98,0,0,1-.979.98Z" transform="translate(6291.654 -1189.548)"/><path class="g" d="M-6117.565,1200.861h-10.521a.981.981,0,0,1-.981-.98h0a.981.981,0,0,1,.981-.98h10.521a.98.98,0,0,1,.98.98h0a.98.98,0,0,1-.98.98Z" transform="translate(6275.632 -1189.548)"/><path class="g" d="M-6077.967,1200.861h-10.518a.98.98,0,0,1-.979-.98h0a.98.98,0,0,1,.979-.98h10.518a.98.98,0,0,1,.98.98h0a.98.98,0,0,1-.98.98Z" transform="translate(6259.609 -1189.548)"/><path class="h" d="M-6031.451,1201.1h-15.917a1.73,1.73,0,0,1-1.729-1.729h0a1.729,1.729,0,0,1,1.729-1.729h15.917a1.728,1.728,0,0,1,1.729,1.729h0A1.729,1.729,0,0,1-6031.451,1201.1Z" transform="translate(6243.24 -1189.041)"/><rect class="h" width="37.189" height="8.178" rx="4.089" transform="translate(99.396 120.896)"/><g transform="translate(211.557 52.259)"><path class="g" d="M-6019.884,1302.981v-31.13a.98.98,0,0,1,.981-.981h0a.98.98,0,0,1,.979.981v31.13a.98.98,0,0,1-.979.98h0A.982.982,0,0,1-6019.884,1302.981Z" transform="translate(6019.886 -1270.871)"/><circle class="g" cx="0.981" cy="0.981" r="0.981" transform="translate(0 40.013)"/><circle class="g" cx="0.981" cy="0.981" r="0.981" transform="translate(0 53.854)"/><circle class="g" cx="0.981" cy="0.981" r="0.981" transform="translate(0 67.694)"/></g><rect class="g" width="91.569" height="15.721" rx="7.861" transform="translate(99.342 38.88)"/><path class="g" d="M-6152.4,1302.429H-6200.4a7.885,7.885,0,0,1-7.86-7.86h0a7.885,7.885,0,0,1,7.861-7.861h48.009a7.883,7.883,0,0,1,7.86,7.861h0A7.883,7.883,0,0,1-6152.4,1302.429Z" transform="translate(6307.639 -1225.008)"/><path class="i" d="M-6138.259,1341.426h-68.167a1.845,1.845,0,0,1-1.839-1.838h0a1.844,1.844,0,0,1,1.839-1.838h68.167a1.844,1.844,0,0,1,1.838,1.838h0A1.845,1.845,0,0,1-6138.259,1341.426Z" transform="translate(6307.63 -1245.621)"/><path class="i" d="M-6069.94,1341.426h-6.975a1.844,1.844,0,0,1-1.837-1.838h0a1.843,1.843,0,0,1,1.837-1.838h6.975a1.843,1.843,0,0,1,1.838,1.838h0A1.844,1.844,0,0,1-6069.94,1341.426Z" transform="translate(6255.277 -1245.621)"/><path class="i" d="M-6156.059,1350.509h29.307a1.843,1.843,0,0,1,1.838,1.838h0a1.844,1.844,0,0,1-1.838,1.838h-29.307a1.845,1.845,0,0,1-1.838-1.838h0A1.844,1.844,0,0,1-6156.059,1350.509Z" transform="translate(6287.281 -1250.774)"/><path class="i" d="M-6206.426,1350.509h20.985a1.842,1.842,0,0,1,1.837,1.838h0a1.843,1.843,0,0,1-1.837,1.838h-20.985a1.845,1.845,0,0,1-1.839-1.838h0A1.844,1.844,0,0,1-6206.426,1350.509Z" transform="translate(6307.668 -1250.774)"/><path class="i" d="M-6165.137,1366.946h-41.289a1.845,1.845,0,0,1-1.839-1.838h0a1.844,1.844,0,0,1,1.839-1.838h41.289a1.843,1.843,0,0,1,1.838,1.838h0A1.844,1.844,0,0,1-6165.137,1366.946Z" transform="translate(6307.654 -1255.927)"/><path class="i" d="M-6101.016,1366.946H-6122a1.844,1.844,0,0,1-1.838-1.838h0a1.844,1.844,0,0,1,1.838-1.838h20.985a1.843,1.843,0,0,1,1.839,1.838h0A1.844,1.844,0,0,1-6101.016,1366.946Z" transform="translate(6273.506 -1255.927)"/></g><g transform="translate(117.712 2696.513)"><g transform="translate(0 0)"><rect class="e" width="68.053" height="84.237" rx="6.7" transform="translate(0 12.727) rotate(-10.779)"/><g class="j" transform="translate(2.885 3.37)"><path class="d" d="M-6314.361,1324.54a.321.321,0,0,1-.321-.32.331.331,0,0,1,.038-.151l47.141-88.085a.321.321,0,0,1,.43-.142.321.321,0,0,1,.142.431l-.007.013-47.14,88.085A.321.321,0,0,1-6314.361,1324.54Z" transform="translate(6329.208 -1235.808)"/><path class="d" d="M-6262.525,1320.76a.323.323,0,0,1-.208-.076l-76.21-64.6a.321.321,0,0,1-.024-.452.32.32,0,0,1,.437-.036l76.211,64.6a.32.32,0,0,1,.037.451.321.321,0,0,1-.244.113Z" transform="translate(6339.049 -1243.771)"/></g></g><g transform="translate(41.991 31.714)"><path class="e" d="M-6223.23,1378.839s8.355,29.026,11.745,43.281c3.559,14.969,14.147,37.6,15.028,47.518.915.365,3.882-.045,5.464-.811,0,0-1.451-31.635-10.054-46.046,1.942-35.459-7.682-43.941-7.682-43.941Z" transform="translate(6253.171 -1323.835)"/><path class="k" d="M-6208.259,1403.3l-4.7,7.216c1.49,5.442,3.012,11.115,4.257,16C-6207.392,1418.057-6208.259,1403.3-6208.259,1403.3Z" transform="translate(6249.021 -1333.712)"/><path class="l" d="M-6202.63,1335.3c.137.4.228.683.327,1.01s.179.634.267.95c.172.63.308,1.264.444,1.9a36.409,36.409,0,0,1,.577,3.849,32.159,32.159,0,0,1,.165,3.927,29.44,29.44,0,0,1-.319,3.985l-.029.217a2.145,2.145,0,0,1-.107.433,6.549,6.549,0,0,1-1.271,2.1,8.6,8.6,0,0,1-1.55,1.347,12.215,12.215,0,0,1-3.088,1.451,18.3,18.3,0,0,1-2.995.663,18.734,18.734,0,0,1-3,.173,1.746,1.746,0,0,1-1.7-1.791,1.746,1.746,0,0,1,1.015-1.539l.146-.067c.732-.336,1.558-.687,2.3-1.056a22.035,22.035,0,0,0,2.127-1.166,8.4,8.4,0,0,0,1.617-1.255c.4-.408.5-.775.439-.8l-.138.65c.019-1.058.016-2.117-.067-3.195s-.2-2.156-.369-3.239-.363-2.165-.6-3.241c-.119-.537-.247-1.073-.375-1.6l-.2-.786-.19-.71-.05-.184a3.47,3.47,0,0,1,2.442-4.255,3.468,3.468,0,0,1,4.189,2.228Z" transform="translate(6249.81 -1305.301)"/><path class="l" d="M-6214.106,1367.413l-4.182-1.192a2.613,2.613,0,0,0-1.806.137l-1.562.715a1.5,1.5,0,0,0-.742,1.992l.014.03.732,1.514a1.5,1.5,0,0,0,1.673.815l2.8-.609s3.149.206,4.262-1.664Z" transform="translate(6252.89 -1318.699)"/><g transform="translate(40.063 24.123)"><path class="e" d="M-6203.743,1327.039c-2.242,2.329-3.439,5.829-1.624,12.519,2.395,1.187,8.2-.354,8.2-.354S-6197.088,1329.151-6203.743,1327.039Z" transform="translate(6206.251 -1327.039)"/><path class="m" d="M-6203.743,1327.039c-2.242,2.329-3.439,5.829-1.624,12.519,2.395,1.187,8.2-.354,8.2-.354S-6197.088,1329.151-6203.743,1327.039Z" transform="translate(6206.251 -1327.039)"/></g><g transform="translate(40.234 28.761)"><path class="n" d="M-6195.372,1334.849a.211.211,0,0,0-.206.214.21.21,0,0,0,.213.207h.008l1.047-.037q-.089-.209-.188-.414Z" transform="translate(6201.77 -1334.819)"/><path class="n" d="M-6195.862,1341.787a.21.21,0,0,0-.294.043.211.211,0,0,0,.024.279l3.011,2.534c-.006-.16-.018-.355-.034-.579Z" transform="translate(6202.02 -1337.616)"/><path class="e" d="M-6205.892,1341.355l3.387-2.129a.211.211,0,0,0,.067-.291.211.211,0,0,0-.292-.067h0l-3.235,2.033C-6205.945,1341.049-6205.915,1341.205-6205.892,1341.355Z" transform="translate(6205.964 -1336.441)"/></g><path class="l" d="M-6216.968,1310.233c-.417,2.942-.724,8.273,1.36,9.945,0,0-2.746-.073-8.035,4.173-1.95-2.174-.812-3.083-.812-3.083,3.138-1.156,2.942-3.522,2.281-5.686Z" transform="translate(6253.798 -1296.129)"/><path class="n" d="M-6226.232,1303.685c-.1.384-.375.659-.623.615s-.371-.391-.273-.775.375-.659.623-.615S-6226.135,1303.3-6226.232,1303.685Z" transform="translate(6254.758 -1293.17)"/><path class="n" d="M-6226.457,1302.691l-.842-.429S-6227.014,1303.066-6226.457,1302.691Z" transform="translate(6254.813 -1292.91)"/><path class="o" d="M-6227.207,1305.432a11.646,11.646,0,0,1-1.967,2.206,1.576,1.576,0,0,0,1.286.5Z" transform="translate(6255.571 -1294.19)"/><path class="n" d="M-6226.162,1298.686a.217.217,0,0,1-.009-.166.229.229,0,0,1,.3-.123,2.417,2.417,0,0,1,1.517,1.516.211.211,0,0,1-.151.258l-.02,0a.251.251,0,0,1-.286-.179,1.93,1.93,0,0,0-1.214-1.188A.252.252,0,0,1-6226.162,1298.686Z" transform="translate(6254.363 -1291.342)"/><path class="l" d="M-6213.7,1300.264c-1.346,4.516-1.818,6.451-4.677,8.386-4.3,2.911-9.549.587-9.579-4.162-.027-4.276,2.178-10.942,7.083-11.969a6.035,6.035,0,0,1,7.3,4.422A6.029,6.029,0,0,1-6213.7,1300.264Z" transform="translate(6255.077 -1288.904)"/><path class="n" d="M-6222.577,1298.215c-2.675-1.9-1.372-5.394,1.083-5.5-3.2-2.241-1.532-6.3,2.385-6.135s4.467,2.563,4.467,2.563,6.312.32,7.2,4.908c1.042,5.4-2.256,8.858-6.311,10.458,2.757,2.261-3.749,3.849-6.984,2.027C-6224.06,1304.667-6225.207,1300.622-6222.577,1298.215Z" transform="translate(6253.505 -1286.574)"/><path class="d" d="M-6199.329,1295.889c-3.442-.637-5.168,4.122-2.928,6.9a5.333,5.333,0,0,0,1.153,1.089,2.239,2.239,0,0,0,3.1-.664,2.235,2.235,0,0,0,.353-1.045C-6197.469,1299.885-6197.472,1296.232-6199.329,1295.889Z" transform="translate(6245.107 -1290.312)"/><path class="n" d="M-6188.735,1296.613a1.053,1.053,0,0,0,.455-.732,2.234,2.234,0,0,0-2.1-2.409c-.735-2.342-3.841-2.385-5.589-.708-1.431-.73-3.021.876-2.827,2.554-1.508.676-1.9,3.176-.526,4.623a3.589,3.589,0,0,0,.833.669,1.51,1.51,0,0,0,.208.081,2.6,2.6,0,0,0,2.024,2.171,2.886,2.886,0,0,0,.859.051,1.173,1.173,0,0,0,.961-.715c1,.823,2.07,1.358,2.832.827a2.459,2.459,0,0,0,1.092-2.181,1.476,1.476,0,0,0,1.435-.053C-6187.612,1299.77-6187.736,1297.939-6188.735,1296.613Z" transform="translate(6243.855 -1288.603)"/><path class="l" d="M-6221.346,1305.264a3.24,3.24,0,0,1-2.118,1.539c-1.1.187-1.453-1.086-.984-2.282.423-1.077,1.5-2.472,2.528-2.109S-6220.708,1304.23-6221.346,1305.264Z" transform="translate(6253.744 -1292.947)"/><g transform="translate(27.843 2.437)"><path class="e" d="M-6221.573,1297.194c.941-1.8,6.1-6.709,9.53-6.527a9.652,9.652,0,0,1,2.027.808.128.128,0,0,1,.055.173.127.127,0,0,1-.1.069c-1.346.157-5.716,1.167-9.812,7.61A6.586,6.586,0,0,1-6221.573,1297.194Z" transform="translate(6224.659 -1290.662)"/><path class="d" d="M-6221.431,1304.721c-.827,1.84-2.489,2.887-3.71,2.338s-1.541-2.486-.715-4.326,2.487-2.886,3.709-2.337S-6220.6,1302.881-6221.431,1304.721Z" transform="translate(6226.574 -1294.534)"/><path class="e" d="M-6222.618,1304.312c-.747,1.661-2.178,2.637-3.2,2.18s-1.238-2.176-.492-3.838,2.178-2.637,3.2-2.18S-6221.872,1302.65-6222.618,1304.312Z" transform="translate(6226.749 -1294.579)"/></g><path class="n" d="M-6184.271,1537.207c3.6-.534,3.667-1.133,5.6-1.807,1.651-.583,2.115-.5,3.448-.95,1.114-.374.736-1.435,0-2.563a13.414,13.414,0,0,1-.821-2.106l-5.464.811c-.532,1.526-.719,3.478-3.839,4.594C-6187.206,1535.853-6185.7,1537.421-6184.271,1537.207Z" transform="translate(6238.221 -1384.792)"/><path class="n" d="M-6239.98,1538.918c3.577-.006,4.262-.235,6.27-.3,1.722-.063,2.005.3,3.75.3,1.157,0,1.315-1.3.894-2.278a17.918,17.918,0,0,1-.62-2.658h-4.929c-.889,1.563-3.313,2.718-6.021,2.912C-6242.574,1537.037-6241.411,1538.918-6239.98,1538.918Z" transform="translate(6260.612 -1386.489)"/><path class="e" d="M-6231.948,1378.839s-.716,25.716.81,42.047c-.1,15.331.376,50.442.376,50.442.12.783,4.233.47,4.929,0,0,0,7.7-25.575,4.282-50.442,8.558-25.936,6.712-42.047,6.712-42.047Z" transform="translate(6256.759 -1323.835)"/><g transform="translate(55.992 142.374)"><path class="e" d="M-6179.528,1526.836a14.141,14.141,0,0,1,.11,2.048.425.425,0,0,0,.406.444h.021a20.767,20.767,0,0,0,5.767-1.171.418.418,0,0,0,.286-.4l.018-1.935a.425.425,0,0,0-.422-.429.444.444,0,0,0-.073.006l-5.76.968A.422.422,0,0,0-6179.528,1526.836Z" transform="translate(6179.531 -1525.396)"/><path class="p" d="M-6179.528,1526.836a14.141,14.141,0,0,1,.11,2.048.425.425,0,0,0,.406.444h.021a20.767,20.767,0,0,0,5.767-1.171.418.418,0,0,0,.286-.4l.018-1.935a.425.425,0,0,0-.422-.429.444.444,0,0,0-.073.006l-5.76.968A.422.422,0,0,0-6179.528,1526.836Z" transform="translate(6179.531 -1525.396)"/></g><g transform="translate(25.337 144.943)"><path class="e" d="M-6230.855,1530.093c-.015.533-.046,1.481-.1,2.182a.448.448,0,0,0,.39.469,29.354,29.354,0,0,0,5.437-.059.4.4,0,0,0,.358-.324l.366-1.908a.448.448,0,0,0-.366-.518.355.355,0,0,0-.056-.006l-5.613-.224a.4.4,0,0,0-.42.376Z" transform="translate(6230.952 -1529.705)"/><path class="p" d="M-6230.855,1530.093c-.015.533-.046,1.481-.1,2.182a.448.448,0,0,0,.39.469,29.354,29.354,0,0,0,5.437-.059.4.4,0,0,0,.358-.324l.366-1.908a.448.448,0,0,0-.366-.518.355.355,0,0,0-.056-.006l-5.613-.224a.4.4,0,0,0-.42.376Z" transform="translate(6230.952 -1529.705)"/></g><g transform="translate(21.533 23.877)"><path class="e" d="M-6237.312,1336.2a88.9,88.9,0,0,0,1.225,8.9c.628,3.852,1.089,7.609,2,13.962,8.823.927,19.207.179,19.662-1.307-.7-5.5-.675-12.922,1.3-25.7a4.578,4.578,0,0,0-3.651-5.347,4.54,4.54,0,0,0-.962-.077c-.782.017-1.609.052-2.454.114a62.491,62.491,0,0,0-8.848,1.09c-.95.206-1.932.449-2.869.7A7.392,7.392,0,0,0-6237.312,1336.2Z" transform="translate(6237.333 -1326.626)"/><path class="q" d="M-6237.312,1336.2a88.9,88.9,0,0,0,1.225,8.9c.628,3.852,1.089,7.609,2,13.962,8.823.927,19.207.179,19.662-1.307-.7-5.5-.675-12.922,1.3-25.7a4.578,4.578,0,0,0-3.651-5.347,4.54,4.54,0,0,0-.962-.077c-.782.017-1.609.052-2.454.114a62.491,62.491,0,0,0-8.848,1.09c-.95.206-1.932.449-2.869.7A7.392,7.392,0,0,0-6237.312,1336.2Z" transform="translate(6237.333 -1326.626)"/></g><g transform="translate(21.694 23.903)"><path class="n" d="M-6234.648,1333.855l1.026,1.288a.21.21,0,0,0,.293.046.21.21,0,0,0,.047-.294l-.012-.014-1.078-1.353C-6234.467,1333.634-6234.56,1333.743-6234.648,1333.855Z" transform="translate(6236.088 -1329.44)"/><path class="e" d="M-6226.906,1331.39h.014a.208.208,0,0,0,.209-.2l.119-1.9c-.144.036-.284.073-.428.11l-.111,1.762a.211.211,0,0,0,.2.223Z" transform="translate(6233.042 -1327.73)"/><path class="e" d="M-6215.042,1332.984a.212.212,0,0,0,.291-.066.211.211,0,0,0-.059-.286l-5.384-3.556a.209.209,0,0,0-.291.059.211.211,0,0,0,.059.292h0Z" transform="translate(6230.383 -1327.628)"/><path class="n" d="M-6226.749,1337.564a.211.211,0,0,0,.119.272l6.009,2.352a.23.23,0,0,0,.077.015.211.211,0,0,0,.209-.212.21.21,0,0,0-.133-.194l-6.009-2.352a.209.209,0,0,0-.271.116Z" transform="translate(6232.903 -1331.015)"/><path class="e" d="M-6232.625,1351.672a.212.212,0,0,0,.114.034.211.211,0,0,0,.179-.1l3.5-5.42a.21.21,0,0,0-.075-.288.211.211,0,0,0-.279.061l-3.5,5.42A.211.211,0,0,0-6232.625,1351.672Z" transform="translate(6235.309 -1334.425)"/><path class="e" d="M-6236.093,1346.646a.211.211,0,0,0,.3,0,.21.21,0,0,0,0-.3l-.014-.013-1.259-1.178c.021.205.043.417.068.639Z" transform="translate(6237.063 -1334.138)"/><path class="e" d="M-6203.669,1352.966a.211.211,0,0,0-.123.272.212.212,0,0,0,.194.136.246.246,0,0,0,.073-.013l2.661-.973c.015-.153.03-.31.046-.464Z" transform="translate(6223.632 -1336.869)"/><path class="e" d="M-6205.63,1344.04a.21.21,0,0,0,.111-.032l4.615-2.9c.025-.179.05-.358.075-.544l-4.915,3.089a.21.21,0,0,0-.067.289A.209.209,0,0,0-6205.63,1344.04Z" transform="translate(6224.455 -1332.281)"/><path class="e" d="M-6214.737,1347.686a.21.21,0,0,0-.29-.067l-5.463,3.434a.209.209,0,0,0-.066.29.211.211,0,0,0,.178.1.221.221,0,0,0,.112-.032l5.463-3.434A.21.21,0,0,0-6214.737,1347.686Z" transform="translate(6230.41 -1335.117)"/><path class="n" d="M-6204.493,1331.968a.212.212,0,0,0,.074-.014.21.21,0,0,0,.124-.27h0l-1.891-5.013c-.148.006-.292.01-.443.017l1.939,5.145A.214.214,0,0,0-6204.493,1331.968Z" transform="translate(6224.773 -1326.67)"/><path class="e" d="M-6212.357,1379.54a.211.211,0,0,0-.291.065.212.212,0,0,0,.058.286l1.2.791q.35-.023.689-.049Z" transform="translate(6227.216 -1348.008)"/><path class="e" d="M-6202.551,1374.974l-4.663-1.825a.211.211,0,0,0-.279.1.211.211,0,0,0,.1.279l.021.009,4.86,1.9C-6202.524,1375.289-6202.537,1375.127-6202.551,1374.974Z" transform="translate(6225.129 -1345.432)"/><path class="n" d="M-6232.241,1378.553c.018.129.036.255.054.387a.2.2,0,0,0,.134-.187A.2.2,0,0,0-6232.241,1378.553Z" transform="translate(6235.116 -1347.623)"/><path class="e" d="M-6233.039,1366.831a.211.211,0,0,0,.21-.211.209.209,0,0,0-.076-.16l-1.164-.979c.029.206.06.413.088.624l.805.677A.214.214,0,0,0-6233.039,1366.831Z" transform="translate(6235.854 -1342.344)"/><path class="n" d="M-6220.056,1362.333a.21.21,0,0,0,.209-.212.21.21,0,0,0-.133-.194l-6.007-2.354a.21.21,0,0,0-.279.1.211.211,0,0,0,.1.279l.021.009,6.008,2.354A.209.209,0,0,0-6220.056,1362.333Z" transform="translate(6232.71 -1339.95)"/><path class="e" d="M-6221.939,1368.853l-5.463,3.434a.209.209,0,0,0-.066.29.21.21,0,0,0,.179.1.219.219,0,0,0,.111-.032l5.463-3.434a.211.211,0,0,0,.067-.291.211.211,0,0,0-.291-.067Z" transform="translate(6233.202 -1343.692)"/><path class="n" d="M-6209.732,1363.593a.213.213,0,0,0,.179.1.222.222,0,0,0,.111-.032l5.464-3.434a.211.211,0,0,0,.066-.291.211.211,0,0,0-.291-.067l-5.463,3.434a.21.21,0,0,0-.067.288Z" transform="translate(6226.039 -1340.063)"/><path class="n" d="M-6220.371,1379.8a.209.209,0,0,0-.271-.122.21.21,0,0,0-.123.269l.352.932.452.006Z" transform="translate(6230.485 -1348.071)"/></g><path class="l" d="M-6242.278,1340.278c-.048.417-.088.715-.139,1.053s-.114.65-.174.971c-.124.641-.265,1.273-.414,1.9a35.666,35.666,0,0,1-1.136,3.722,32.083,32.083,0,0,1-1.542,3.615,29.428,29.428,0,0,1-2.006,3.458l-.132.2a1.937,1.937,0,0,1-.271.325,27.344,27.344,0,0,1-3.332,2.623c-1.086.758-2.191,1.451-3.293,2.132s-2.226,1.32-3.358,1.939-2.271,1.215-3.458,1.769a1.74,1.74,0,0,1-2.314-.838,1.74,1.74,0,0,1,.378-2l.015-.014c.918-.869,1.879-1.705,2.813-2.56l2.827-2.5c.946-.821,1.865-1.661,2.772-2.476q.679-.616,1.3-1.231l.6-.6c.191-.2.333-.371.5-.554l-.4.528c.474-.946.926-1.9,1.316-2.913s.75-2.031,1.064-3.081.6-2.111.854-3.183c.127-.537.249-1.073.358-1.61l.284-1.52.036-.195a3.47,3.47,0,0,1,4.048-2.773,3.469,3.469,0,0,1,2.808,3.811Z" transform="translate(6269.64 -1306.699)"/><path class="l" d="M-6265.6,1376.869l-3.59-1.062a2.613,2.613,0,0,0-1.807.119l-1.568.7a1.5,1.5,0,0,0-.762,1.986l.014.029.714,1.52a1.507,1.507,0,0,0,1.665.835l2.811-.581a7.06,7.06,0,0,0,2.66-.373,1.672,1.672,0,0,0,.954-2.165,1.659,1.659,0,0,0-.175-.333h0A1.672,1.672,0,0,0-6265.6,1376.869Z" transform="translate(6273.453 -1322.567)"/><g transform="translate(18.874 26.294)"><path class="e" d="M-6234.933,1330.681c-3.027,1.136-5.616,3.778-6.86,10.6,1.649,2.1,7.548,3.213,7.548,3.213S-6229.838,1335.454-6234.933,1330.681Z" transform="translate(6241.793 -1330.681)"/><path class="q" d="M-6234.933,1330.681c-3.027,1.136-5.616,3.778-6.86,10.6,1.649,2.1,7.548,3.213,7.548,3.213S-6229.838,1335.454-6234.933,1330.681Z" transform="translate(6241.793 -1330.681)"/></g><g transform="translate(19.671 27.75)"><path class="n" d="M-6233.782,1334.979a.21.21,0,0,0,.294.046.21.21,0,0,0,.046-.294l-.012-.014-1.271-1.6q-.161.133-.317.278Z" transform="translate(6238.27 -1333.122)"/><path class="n" d="M-6226.75,1337.574a.211.211,0,0,0,.119.272l.071.028c-.023-.14-.048-.278-.078-.417A.208.208,0,0,0-6226.75,1337.574Z" transform="translate(6234.927 -1334.873)"/><path class="e" d="M-6231.071,1350.42l2.265-3.505c.079-.328.153-.669.218-1.021a.2.2,0,0,0-.106.074l-2.808,4.347C-6231.349,1350.353-6231.206,1350.387-6231.071,1350.42Z" transform="translate(6236.84 -1338.28)"/><path class="e" d="M-6237.463,1345.46a.211.211,0,0,0,.3,0,.21.21,0,0,0,0-.3l-.014-.012-3.135-2.936c-.05.146-.1.289-.146.44Z" transform="translate(6240.456 -1336.795)"/></g></g></g><g transform="translate(259.769 2784.094)"><path class="n" d="M-6090.012,1440.626c-.895-3.469.184-4.791,1.447-6.175a5.663,5.663,0,0,0,1.116-3.7,16.441,16.441,0,0,1,1.388,8.525C-6086.636,1443.9-6089.359,1443.159-6090.012,1440.626Z" transform="translate(6099.208 -1400.667)"/><path class="n" d="M-6088.2,1490.531c-1.325-2.222-6.967-6.91-11.251-5.067,3.425,1.422,7.2,10.082,12.272,9.717Z" transform="translate(6102.889 -1422.592)"/><path class="e" d="M-6081.752,1488.265a.6.6,0,0,1-.585-.46c-.825-3.391-8.145-33.742-11.012-55.287a.6.6,0,0,1,.484-.7.6.6,0,0,1,.7.484.389.389,0,0,1,.007.058c2.861,21.484,10.165,51.777,10.989,55.16a.6.6,0,0,1-.442.728A.66.66,0,0,1-6081.752,1488.265Z" transform="translate(6100.428 -1401.092)"/><g transform="translate(0 25.681)"><path class="e" d="M-6096.652,1430.417c.078-2.541-1.109-4.106-4.087-4.38s-3.92-1.515-4.476-2.674c1,5.851,8.021,7.315,8.7,10.2C-6096.652,1431.4-6096.652,1430.417-6096.652,1430.417Z" transform="translate(6105.216 -1423.363)"/><path class="e" d="M-6094.246,1447.839c-.246-2.665-2.4-3.031-4.845-3.352a4.227,4.227,0,0,1-3.263-1.893,6.241,6.241,0,0,0,1.774,6.18C-6097.691,1451.514-6094.068,1449.785-6094.246,1447.839Z" transform="translate(6104.146 -1431.129)"/><path class="e" d="M-6081.812,1485.028c-.423-2.975,1.618-4.207,1.3-8.576C-6074.663,1486.447-6081.15,1489.7-6081.812,1485.028Z" transform="translate(6095.788 -1444.803)"/><path class="e" d="M-6090.867,1466.7c-1.65-2.512-3.995-2.087-6.646-5.575C-6095.295,1472.486-6088.278,1470.638-6090.867,1466.7Z" transform="translate(6102.105 -1438.612)"/></g><path class="n" d="M-6070.048,1464.593c.146-4.018-3.581-6.14-6.433-10.153C-6074.746,1462.431-6070.275,1470.9-6070.048,1464.593Z" transform="translate(6093.611 -1410.232)"/><path class="e" d="M-6069.245,1472.948h-.056a.709.709,0,0,1-.65-.761c.667-8.442,3.022-44.831,2.363-68.621a.708.708,0,0,1,.687-.727.7.7,0,0,1,.727.665v.021c.66,23.855-1.7,60.314-2.367,68.772A.708.708,0,0,1-6069.245,1472.948Z" transform="translate(6090.975 -1389.393)"/><g transform="translate(7.721)"><path class="e" d="M-6065.848,1396.363c-.894-4.868.933-8.227,6.583-9.624s7.1-4.061,7.832-6.454c-.22,11.553-13.294,16.423-13.764,22.182C-6065.56,1398.261-6065.848,1396.363-6065.848,1396.363Z" transform="translate(6081.684 -1380.285)"/><path class="e" d="M-6075.995,1413.218c.905-5.835-3.5-7.771-8.571-9.773s-5.967-5.8-5.967-5.8a13.772,13.772,0,0,0,.483,14.176C-6085.338,1419.231-6076.656,1417.475-6075.995,1413.218Z" transform="translate(6092.265 -1387.295)"/><path class="e" d="M-6065.057,1443.649c.972-4.629,4.823-4.835,9.19-4.9s6.113-2.659,6.113-2.659a11.03,11.03,0,0,1-4.373,10.492C-6059.757,1450.8-6065.767,1447.03-6065.057,1443.649Z" transform="translate(6081.3 -1402.821)"/><path class="e" d="M-6066.514,1480.812c1.059-2.848,6.583-9.461,11.923-8.244-3.657,2.371-6.182,13.178-12.116,13.835C-6066.543,1481.628-6066.514,1480.812-6066.514,1480.812Z" transform="translate(6081.943 -1417.493)"/></g><g transform="translate(8.96 77.306)"><path class="e" d="M-6070.891,1509.959h-17.817a1.478,1.478,0,0,0-1.478,1.479,1.522,1.522,0,0,0,.06.419l4.823,16.3a1.479,1.479,0,0,0,1.417,1.059h8.173a1.479,1.479,0,0,0,1.418-1.059l4.822-16.3a1.478,1.478,0,0,0-1-1.837A1.489,1.489,0,0,0-6070.891,1509.959Z" transform="translate(6090.186 -1509.959)"/><path class="g" d="M-6070.891,1509.959h-17.817a1.478,1.478,0,0,0-1.478,1.479,1.522,1.522,0,0,0,.06.419l4.823,16.3a1.479,1.479,0,0,0,1.417,1.059h8.173a1.479,1.479,0,0,0,1.418-1.059l4.822-16.3a1.478,1.478,0,0,0-1-1.837A1.489,1.489,0,0,0-6070.891,1509.959Z" transform="translate(6090.186 -1509.959)"/><path class="m" d="M-6070.891,1509.959h-17.817a1.478,1.478,0,0,0-1.478,1.479,1.522,1.522,0,0,0,.06.419l4.823,16.3a1.479,1.479,0,0,0,1.417,1.059h8.173a1.479,1.479,0,0,0,1.418-1.059l4.822-16.3a1.478,1.478,0,0,0-1-1.837A1.489,1.489,0,0,0-6070.891,1509.959Z" transform="translate(6090.186 -1509.959)"/></g></g></g></svg>