<svg xmlns="http://www.w3.org/2000/svg" width="128" height="80" viewBox="0 0 128 80"><defs><style>.a{fill:#f7a491;}.b{fill:#466eb6;}.c{fill:#f8a492;}.d{fill:#b75742;}.e{fill:#f47458;}.f{fill:#fff;}.g{fill:#184655;}.h{fill:#07345a;}.i{fill:#3c8f7c;}.j{fill:#ffd95e;}.k{fill:#fdf0d9;}.l{fill:#298aab;}.m{fill:#ffe89e;}.n{fill:#1d6178;}.o{fill:#ff916c;}.p{fill:#ffba94;}.q{fill:#232a55;}.r{fill:#7aaabf;}.s{fill:#322783;}.t{fill:#261d62;}.u{fill:#453faf;}.v{fill:#6a65bf;}.w{fill:#732b1a;}.x{fill:#f75f4b;}.y{fill:#247894;opacity:0.39;}.y,.z{isolation:isolate;}.z{fill:#ff682b;opacity:0.68;}.aa{fill:#0b0080;}</style></defs><g transform="translate(-1093.249 -1056.529)"><g transform="translate(1093.249 1056.529)"><g transform="translate(105.349 38.409)"><g transform="translate(0 0.482)"><path class="a" d="M-5337.605-379.554a17.279,17.279,0,0,1,1.907,1.515c.373.5-2.791,1.439-2.445.852a6.966,6.966,0,0,0,.317-.634c.052-.239-.617-.882-.617-.882Z" transform="translate(5345.666 412.743)"/><path class="b" d="M-5338.743-376.429l1.12-1.553a3.053,3.053,0,0,0,1.415-.947,2.618,2.618,0,0,1,1.041.764,18.272,18.272,0,0,1-1.9,1.685,5.379,5.379,0,0,1-1.63.909C-5339.648-375.26-5338.743-376.429-5338.743-376.429Z" transform="translate(5345.409 412.964)"/><path class="c" d="M-5325.618-395.231s-.2.176-.276.23-.349.233-.349.233a5.277,5.277,0,0,1-.995.467.455.455,0,0,1,.017-.329c.049-.054.187-.108.235-.162a.173.173,0,0,0,0-.222c-.062-.06-.39.116-.39.116a1.221,1.221,0,0,0-.377.321,1.564,1.564,0,0,0-.321.719,15.144,15.144,0,0,1-1.409.692l-4.248,1.736h0a1.091,1.091,0,0,0,.123.514c.1.565.266.6.4,1.148.619-.307,4.9-2.624,5.333-2.864,0,0,.652-.11,1.059-.191a3.645,3.645,0,0,0,.874-.375,3.859,3.859,0,0,0,.782-.465c.346-.264-.1-.164-.1-.164s-.725.379-.744.318.394-.23.777-.518l.287-.215c.234-.179.194-.365-.081-.216a2.988,2.988,0,0,0-.359.225,2.519,2.519,0,0,1-.349.192,3.193,3.193,0,0,1-.361.2c0-.015-.057-.019.046-.1.125-.1.431-.252.6-.406.094-.089.309-.27.309-.27a2.813,2.813,0,0,0,.261-.343c-.073-.115-.322.054-.437.192a2.073,2.073,0,0,0-.337.242s-.528.289-.57.219a7.054,7.054,0,0,1,.55-.5c.247-.237.458-.515.413-.568C-5325.316-395.467-5325.618-395.231-5325.618-395.231Z" transform="translate(5347.443 407.159)"/><path class="d" d="M-5333.111-388.345l-.259,1.266-6.551,5.852,4.688,4.66-1.265,1.271s-6.926-4.994-7.174-5.649c-.384-1.007,4.964-7.683,4.964-7.683Z" transform="translate(5343.691 409.546)"/><path class="a" d="M-5332.442-377.064a17.41,17.41,0,0,1,1.905,1.513c.374.5-2.79,1.439-2.444.853a6.649,6.649,0,0,0,.317-.634c.053-.239-.618-.883-.618-.883Z" transform="translate(5347.612 413.621)"/><path class="b" d="M-5333.582-373.94l1.12-1.553a2.848,2.848,0,0,0,1.459-.924,2.4,2.4,0,0,1,1,.737,18.13,18.13,0,0,1-1.9,1.685,5.343,5.343,0,0,1-1.628.909C-5334.483-372.771-5333.582-373.94-5333.582-373.94Z" transform="translate(5347.354 413.849)"/><path class="e" d="M-5334.774-387.854l-.295,7.979,5.538,6.67-1.3,1.175s-6.43-5.422-7.134-6.93c-.438-.937-1.911-9.4-1.911-9.4Z" transform="translate(5345.131 409.64)"/><path class="f" d="M-5340-385.439c.533-1.181.47-9.648,2.542-11.631.73.12,1.249.189,1.377.22.109.872.227,4.072.3,7.006a36.329,36.329,0,0,0,.244,5.084C-5335.387-384.091-5340.484-384.36-5340-385.439Z" transform="translate(5345.071 406.571)"/><path class="b" d="M-5335.356-396.471c.583.135,1.011.222,1.774,1.329.73,1.059,2.352,3.574,2.352,3.574l4.267-1.864.2,2.125s-4.832,2.467-5.506,2.245-2.6-2.975-2.741-3.161c-.032-.043.161,2.939.161,3.416s.926,4.627.926,4.627-2.35.568-2.809-.464c-1.406-3.165-.328-12.268-.328-12.268S-5335.773-396.564-5335.356-396.471Z" transform="translate(5346.041 406.627)"/><path class="a" d="M-5341.913-403.006a1.234,1.234,0,0,0,.187-.76l.04-.31a19.247,19.247,0,0,0-1.942.012.745.745,0,0,0,0,.322c.11.334.854,2.5.854,2.5l1.218-.135A5.673,5.673,0,0,1-5341.913-403.006Z" transform="translate(5343.708 404.095)"/><path class="b" d="M-5336.738-394.7s-.842,2.352-1.535,2.014a39.624,39.624,0,0,1-4.622-4.424c-.038-.188-.308-4.971-.308-4.971l1.54-.3.886,3.922a38.577,38.577,0,0,0,3.425,2.937A1.056,1.056,0,0,1-5336.738-394.7Z" transform="translate(5343.876 404.697)"/><path class="b" d="M-5339.9-384.788a2.7,2.7,0,0,1-.948-.156s.889-4.912,1.4-9.783c.2-1.924.391-2.713,1.2-2.57.233.041.864.27,1.1.315a48.765,48.765,0,0,0-2.327,11.249C-5339.614-385.1-5339.742-384.784-5339.9-384.788Z" transform="translate(5344.761 406.485)"/><path class="a" d="M-5337.943-397.367l-.213.853s-.048.741.3.81c.423.083,1.052-.541,1.052-.541l.361-2.4Z" transform="translate(5345.778 406.014)"/><path class="a" d="M-5337.943-397.367l-.213.853s-.048.741.3.81c.423.083,1.052-.541,1.052-.541l.361-2.4Z" transform="translate(5345.778 406.014)"/><path class="e" d="M-5336.457-398.643l-1.5,1.274-.159.637A2.482,2.482,0,0,0-5336.457-398.643Z" transform="translate(5345.792 406.016)"/><path class="a" d="M-5337.685-400.279a.884.884,0,0,0-.818.6,7.483,7.483,0,0,0-.326,1.235c-.159.925.375,1.772.843,1.839a1.756,1.756,0,0,0,1.824-1.546c.1-.561.244-1.3-.227-1.685A2.128,2.128,0,0,0-5337.685-400.279Z" transform="translate(5345.513 405.44)"/><path class="g" d="M-5336.3-396.837s1.645-1.439,1.716-2.57a1.786,1.786,0,0,0-1.814-1.761h-.076a6.376,6.376,0,0,0-1.1.055c-.906.112-1.492.507-1.287,1.236.277.979,2.158.153,2.542.457.316.25-.2.853.112,1.082s.138.143.047.556A7.094,7.094,0,0,0-5336.3-396.837Z" transform="translate(5345.497 405.126)"/><path class="a" d="M-5336.382-398.791c-.041.269-.208.467-.374.445s-.269-.262-.227-.531.209-.468.374-.444S-5336.342-399.061-5336.382-398.791Z" transform="translate(5346.214 405.776)"/><path class="e" d="M-5342.165-403.977a1.647,1.647,0,0,0-.444.53s-.747-.345-.742-.485c.009-.185.755.06.755.06Z" transform="translate(5343.82 404.128)"/></g><path class="a" d="M-5342.282-404.372l.174.422-.4.2s.1-.2.065-.254C-5342.643-404.3-5342.473-404.6-5342.282-404.372Z" transform="translate(5344.129 404.451)"/></g><g transform="translate(31.438 28.342)"><path class="a" d="M-5383.622-406.953a1.466,1.466,0,0,0,.059,1.5c.1.172.43.872.43.872l.164,1.883,1.435-.189a8.055,8.055,0,0,1-.322-1.758c.17-1.43.129-1.5-.113-2.115C-5382.358-407.757-5383.622-406.953-5383.622-406.953Z" transform="translate(5402.493 413.528)"/><path class="a" d="M-5371.448-405.92a.813.813,0,0,1-.013.863,10.625,10.625,0,0,1-.77.947l-.813,1.6-1.147-.642a3.606,3.606,0,0,0,.934-1.588,3.022,3.022,0,0,1,.294-1.143C-5372.7-406.394-5371.448-405.92-5371.448-405.92Z" transform="translate(5406.114 413.93)"/><path class="h" d="M-5378.784-401.681a.814.814,0,0,1,1.132-.108.787.787,0,0,1,.218.276.6.6,0,0,1,.789.2s.837-.247,1.041.982a.417.417,0,0,1,.487.422,1.232,1.232,0,0,1-.2.839.6.6,0,0,1,.138.641.575.575,0,0,1-.424.453s-.09.663-.381.863a.964.964,0,0,1-.689.1.45.45,0,0,1-.446.327c-.342-.032-.765-.352-1.146-.207a4.128,4.128,0,0,1-1.377-.008,1.353,1.353,0,0,1-.781-1.605.8.8,0,0,1-.073-1.141,1.4,1.4,0,0,1,.366-1.549A1.948,1.948,0,0,1-5378.784-401.681Z" transform="translate(5403.66 415.393)"/><path class="a" d="M-5373.272-381.465a11.739,11.739,0,0,0,1.5-.247c.215-.1,1.3.913,1.081,1.421-.121.287-.5.25-.5.25l-.307-.3-1.635.335Z" transform="translate(5406.459 422.529)"/><path class="a" d="M-5378.262-377.586a11.191,11.191,0,0,0,.868,1.232c.185.146-.3,1.539-.854,1.563-.315.014-.445-.342-.445-.342l.137-.406-1-1.315Z" transform="translate(5404.092 423.986)"/><path class="h" d="M-5377.416-376.706a8.314,8.314,0,0,1-.6.676,7.262,7.262,0,0,1-.626.495s-.4.71-.506.958a4.08,4.08,0,0,0-.476,1.475c.013.1.238.2.429.147a9.972,9.972,0,0,0,3.052-2.53C-5375.85-376.037-5377.416-376.706-5377.416-376.706Z" transform="translate(5404.066 424.296)"/><path class="d" d="M-5381.975-388.793c.071-.2.138-.387.21-.561.836.18,1.782.377,2.753.58l.119,3.5c0-.271-.732,5.584-.732,5.584s1.986,3.876,3.278,6.27a5.207,5.207,0,0,1-1.706,1.38,33.977,33.977,0,0,1-4.681-7.246C-5382.792-379.7-5382.849-386.381-5381.975-388.793Z" transform="translate(5402.885 419.838)"/><path class="e" d="M-5375.53-387.93c-.229,2.426-.6,6.1-.674,7.337,1.6.226,5.371,1.342,6.074,1.34a2.771,2.771,0,0,1,.229,1.881c-.037.115-7.443.348-9.362-.852-.5-.312-.654-3.665-.661-7.2l-.119-3.5C-5378.414-388.584-5376.924-388.252-5375.53-387.93Z" transform="translate(5403.91 419.99)"/><path class="f" d="M-5379.883-397.385l1.818.271s1.377.022,1.737.023c.029,0,1.457,6.834,1.8,9.406s.079,3.027.079,3.027a17.05,17.05,0,0,1-4.208.379,13.821,13.821,0,0,1-3.953-1.148,57.418,57.418,0,0,0,2.471-6.373A41.11,41.11,0,0,0-5379.883-397.385Z" transform="translate(5402.943 417.008)"/><path class="i" d="M-5383.344-404.379s.16,6.331.355,6.72l2.319,4.609s-1.53,6.289-2.172,8.461c-.064.219-.352,1.631-.352,1.769,0,.306,1.354.692,1.516.676s1.324-6,2.079-8.926a8.215,8.215,0,0,1,1.292-2.766l.523-.732-3.106-3.693s-.673-5.845-.673-6.21C-5381.565-404.576-5383.148-404.737-5383.344-404.379Z" transform="translate(5402.667 414.466)"/><path class="i" d="M-5377.65-394.633l3.112-4.613s2.021-4.844,2.064-5.023,1.638.026,2.142-.023c.16-.015-2.117,5.086-2.357,5.937-.284,1-1.8,4.935-1.8,4.935a10.355,10.355,0,0,0-.887,4.172c.275,3.02.812,7.372.68,7.5a5.5,5.5,0,0,1-3.579.173C-5380.457-385.038-5377.65-394.633-5377.65-394.633Z" transform="translate(5404.262 414.556)"/><path class="a" d="M-5379.147-397.463l-.138.986s-.3,1.421.086,1.695,1.651-1.735,1.651-1.735l-.137-2.5Z" transform="translate(5404.151 416.433)"/><path class="e" d="M-5377.667-398.207a2.88,2.88,0,0,1-1.634,1.58l.115-.836,1.475-1.555Z" transform="translate(5404.188 416.433)"/><path class="h" d="M-5376.367-400.093c0,.38-.219.69-.493.69s-.493-.308-.493-.69.222-.69.493-.69S-5376.367-400.475-5376.367-400.093Z" transform="translate(5404.922 415.811)"/><path class="h" d="M-5377.383-401.266c0,.219-.267.4-.6.4s-.6-.177-.6-.4.269-.4.6-.4S-5377.383-401.485-5377.383-401.266Z" transform="translate(5404.459 415.501)"/><path class="a" d="M-5378.29-400.94a1.346,1.346,0,0,0-1.7.826,1.251,1.251,0,0,0-.056.224,9.549,9.549,0,0,0-.107,1.266c-.023,1.152.584,2.273,1.118,2.273a2.482,2.482,0,0,0,2.057-2.382A2.174,2.174,0,0,0-5378.29-400.94Z" transform="translate(5403.867 415.731)"/><path class="a" d="M-5378.13-399.11a.389.389,0,0,0,.459.3.383.383,0,0,0,.3-.452.385.385,0,0,0-.381-.308A.426.426,0,0,0-5378.13-399.11Z" transform="translate(5404.63 416.238)"/><path class="h" d="M-5380.318-401.29c-.551.427-.744,1.082-.431,1.452a1.174,1.174,0,0,0,1.563-.1c.549-.429.743-1.083.43-1.452A1.172,1.172,0,0,0-5380.318-401.29Z" transform="translate(5403.588 415.509)"/><path class="h" d="M-5379.431-401.035c0,.187.229.337.51.337s.51-.15.51-.337-.228-.337-.51-.337S-5379.431-401.221-5379.431-401.035Z" transform="translate(5404.14 415.603)"/><ellipse class="h" cx="0.436" cy="0.429" rx="0.436" ry="0.429" transform="translate(23.188 15.569)"/><path class="h" d="M-5372.226-381.51a7.833,7.833,0,0,1,.375.826,6.461,6.461,0,0,1,.193.767s.487.656.669.857a4.473,4.473,0,0,0,1.205,1.082c.1.03.372-.05.369-.26a12.889,12.889,0,0,0-1.141-3.876C-5370.943-382.615-5372.226-381.51-5372.226-381.51Z" transform="translate(5406.854 422.344)"/><path class="e" d="M-5371.772-405.858s.15.884-.465,1.033c-.445.108-.989-1.267-.989-1.267Z" transform="translate(5406.476 413.94)"/><path class="e" d="M-5382.724-407.128l.195.591s-.431,1.9-1.117.406Z" transform="translate(5402.552 413.575)"/><path class="f" d="M-5349.02-383.619a27.837,27.837,0,0,1-14.762-1.1,15.107,15.107,0,0,1-.876,1.338,17.813,17.813,0,0,1-8.449,6.086c-.237.088-.475.172-.717.252-9.234,3.07-20.9.825-23.554-2.346l.624-.5c1.228,1.469,4.81,2.753,9.121,3.274a31.7,31.7,0,0,0,14.242-1.419,16.745,16.745,0,0,0,8.849-6.982l-.093-.039a22.011,22.011,0,0,1-6.775-4.524,25.655,25.655,0,0,1-5.247-7.559,16.191,16.191,0,0,1-1.741-7.687,7.988,7.988,0,0,1,2.042-5.139,6.14,6.14,0,0,1,3.167-1.784,6.73,6.73,0,0,1,3.761.307,10.558,10.558,0,0,1,5.4,5.092,24.968,24.968,0,0,1,2.616,11.225,19.61,19.61,0,0,1-1.978,9.721,27.94,27.94,0,0,0,14.235,1.012c11.891-2.123,22.027-10.5,22.611-18.678l.806.055c-.3,4.233-2.952,8.589-7.469,12.265a33.572,33.572,0,0,1-7.285,4.472,36.294,36.294,0,0,1-3.6,1.413A35.281,35.281,0,0,1-5349.02-383.619Zm-26.744-25.813c-2.4,2.529-2.464,7-.159,11.954a22.193,22.193,0,0,0,11.761,11.766,18.621,18.621,0,0,0,1.927-9.4,24.19,24.19,0,0,0-2.514-10.875,9.768,9.768,0,0,0-4.972-4.724,5.769,5.769,0,0,0-3.854-.135,5.345,5.345,0,0,0-2.19,1.416Z" transform="translate(5397.378 411.895)"/><path class="a" d="M-5372.572-404.875a1.572,1.572,0,0,1-.323-.828c0-.058.151-.91-.054-.933s-.494,1.555-.494,1.555A4.954,4.954,0,0,0-5372.572-404.875Z" transform="translate(5406.395 413.748)"/><path class="a" d="M-5372.187-405.324c-.207.112-.445.185-.515.1s0-.191.1-.277c-.095.028-.168.031-.205-.011-.077-.091,0-.2.1-.292a.152.152,0,0,1-.149-.019c-.177-.2.373-.549.373-.549s.274-.233.392-.095a.363.363,0,0,1,.021.2.232.232,0,0,0,.061.249l.013.014a.057.057,0,0,1,.006.053c-.023.083.109.288.117.3a.241.241,0,0,1,.009.164C-5371.92-405.193-5372.117-405.067-5372.187-405.324Z" transform="translate(5406.605 413.792)"/><path class="a" d="M-5382.884-405.751a1.416,1.416,0,0,0-.014-1.181c-.021-.054-.341-.561-.164-.664.3-.17.827.955.827.955A1.994,1.994,0,0,1-5382.884-405.751Z" transform="translate(5402.754 413.404)"/><path class="a" d="M-5383.485-406.134c.214.1.458.151.523.053s0-.2-.114-.285c.1.02.173.015.207-.034.075-.106,0-.214-.115-.3a.156.156,0,0,0,.149-.037c.172-.23-.4-.541-.4-.541s-.294-.218-.4-.059a.433.433,0,0,0-.016.215c.042.077-.042.192-.042.2a.3.3,0,0,0-.023.147c.026.087-.1.319-.107.333a.308.308,0,0,0,0,.176C-5383.751-405.965-5383.55-405.855-5383.485-406.134Z" transform="translate(5402.479 413.48)"/></g><g transform="translate(14.229 0)"><g transform="translate(70.583)"><path class="j" d="M-5336.977-422.341a9.421,9.421,0,0,1,6.355,11.819,9.5,9.5,0,0,1-4.657,5.548,6.33,6.33,0,0,0-2.935,3.3l-1.9,4.836a2.807,2.807,0,0,1-3.4,1.638l-3.09-.9a2.738,2.738,0,0,1-1.926-3.2c1.1-5.1,1.887-6.9.475-9.415a9.37,9.37,0,0,1,3.822-12.832A9.778,9.778,0,0,1-5336.977-422.341Z" transform="translate(5362.14 435.529)"/><g transform="translate(16.81 18.558)"><path class="k" d="M-5342.155-402.22c1.043-4.083,2.353-8.539,2.891-10.189a13.033,13.033,0,0,1-4.329-1.818c-.7,3.424-1.49,6.862-2.363,10.236l-.442-.111c.886-3.43,1.692-6.926,2.395-10.405a4.229,4.229,0,0,1-1.878-2.164,1.625,1.625,0,0,1,.261-1.274,1.324,1.324,0,0,1,2.341.61,5.7,5.7,0,0,1-.215,2.628,12.57,12.57,0,0,0,4.387,1.87,4.114,4.114,0,0,1,1.4-2.061c2.462-1.735,3.64,3.432-1.1,2.579-.429,1.29-1.791,5.859-2.907,10.208Zm4.716-12.307a3.639,3.639,0,0,0-1.217,1.784,2.736,2.736,0,0,0,2.249-.329c.808-.671.292-2.4-1.034-1.461Zm-7.289-3.476a1.016,1.016,0,0,0-.7,1.243,3.567,3.567,0,0,0,1.529,1.772,4.912,4.912,0,0,0,.182-2.211c-.129-.44-.957-.817-1.013-.81Z" transform="translate(5346.398 418.465)"/></g><path class="l" d="M-5338.336-406.532c-.017.041-.037.079-.053.119l-1.905,4.836a2.8,2.8,0,0,1-3.4,1.639l-3.087-.9a2.736,2.736,0,0,1-1.928-3.2c.49-2.269.918-3.884,1.117-5.2Z" transform="translate(5362.316 440.275)"/><g transform="translate(29.494 5.333)"><path class="m" d="M-5335.53-422.641l3.066-4.155a.89.89,0,0,0-.167-1.262.927.927,0,0,0-1.284.165l-.028.041-3.068,4.155a.892.892,0,0,0,.2,1.256.929.929,0,0,0,1.28-.2h0Z" transform="translate(5337.185 428.244)"/></g><g transform="translate(34.982 19.913)"><path class="m" d="M-5332.318-415.665l5.489.21a.908.908,0,0,0,.952-.861.906.906,0,0,0-.875-.936h0l-5.486-.21a.908.908,0,0,0-.954.861.9.9,0,0,0,.875.934Z" transform="translate(5333.199 417.463)"/></g><g transform="translate(33.818 33.162)"><path class="m" d="M-5328.728-402.1a.892.892,0,0,0,.157-1.263h0a29.367,29.367,0,0,0-3.91-4.037.925.925,0,0,0-1.293,0,.888.888,0,0,0,0,1.271c.031.03.063.057.095.082a27.623,27.623,0,0,1,3.67,3.787.929.929,0,0,0,1.285.161Z" transform="translate(5334.045 407.667)"/></g><g transform="translate(18.152)"><path class="m" d="M-5344.062-423.122a.9.9,0,0,0,.785-1.012,33.47,33.47,0,0,1-.226-7.066.907.907,0,0,0-.823-.983.912.912,0,0,0-1,.809l0,.039a35.385,35.385,0,0,0,.236,7.438.912.912,0,0,0,1.025.775Z" transform="translate(5345.425 432.187)"/></g><g transform="translate(4.783 10.846)"><path class="m" d="M-5347.956-420.532a.894.894,0,0,0-.461-1.187h0l-5.429-2.369a.919.919,0,0,0-1.208.456.892.892,0,0,0,.465,1.187l5.423,2.374a.924.924,0,0,0,1.21-.457Z" transform="translate(5355.135 424.167)"/></g><g transform="translate(0 24.82)"><path class="m" d="M-5357.811-410.581a.957.957,0,0,0,.249,0,29.123,29.123,0,0,0,5.939-1.521.9.9,0,0,0,.5-1.174.923.923,0,0,0-1.151-.507,27.269,27.269,0,0,1-5.557,1.424.9.9,0,0,0-.769,1.024.909.909,0,0,0,.788.757Z" transform="translate(5358.609 413.835)"/></g></g><g transform="translate(0 46.414)"><path class="n" d="M-5398.41-388.009l1.8,1.54,1.209-.947-1.089-2.1Z" transform="translate(5414.199 400.813)"/><path class="d" d="M-5409.878-390.072a15.724,15.724,0,0,0,4.519.564c1.637-.27,5.343-3.232,5.343-3.232l1.377-.038s-2.866,4.669-4.729,5.557a36.348,36.348,0,0,1-5.941,1.731Z" transform="translate(5409.878 399.662)"/><path class="f" d="M-5405.454-393.586l2.885,3.55,1.028-.811-2.882-3.55a.667.667,0,0,0-.925-.1h0a.635.635,0,0,0-.109.908Z" transform="translate(5411.491 399.005)"/><path class="l" d="M-5395.315-395.751l3.227,3.973a2.64,2.64,0,0,1-.431,3.756l-4.754,3.726a2.754,2.754,0,0,1-3.822-.422l-3.226-3.973Z" transform="translate(5411.972 398.614)"/><path class="f" d="M-5401.386-396.813l2.883,3.55,1.026-.811-2.883-3.55a.664.664,0,0,0-.924-.1h0a.639.639,0,0,0-.106.907Z" transform="translate(5413.021 397.868)"/><path class="n" d="M-5404.322-387.846h0a.881.881,0,0,1,.144-1.252h0l8.59-6.732a.918.918,0,0,1,1.275.141h0a.881.881,0,0,1-.143,1.252h0l-8.59,6.734a.918.918,0,0,1-1.275-.142Z" transform="translate(5411.897 398.517)"/><path class="o" d="M-5400.756-392.707c-.137-.18-.413-.491-.64-.523a.631.631,0,0,0-.265.032,3.3,3.3,0,0,0-1.17.775c-.135.156-.007.565.08.745a1.842,1.842,0,0,0,.631-.145c.138-.091-.088-.174-.17-.256.011.009.219-.043.253-.046a.737.737,0,0,1,.308.076c.357.135.774.227,1.022-.135A.374.374,0,0,0-5400.756-392.707Z" transform="translate(5412.511 399.501)"/></g></g><g transform="translate(0 52.389)"><path class="p" d="M-5417.417-376.845a3.346,3.346,0,0,0-.858-.53c-.337-.03-1,1.177-.849,1.6a8.69,8.69,0,0,1,1.495.725A4.65,4.65,0,0,0-5417.417-376.845Z" transform="translate(5420.615 400.013)"/><path class="q" d="M-5418.113-375.451a.568.568,0,0,1,.122.618,6.288,6.288,0,0,1-.631,1.121c-.708,1.044-1.5,1.568-1.58.979s.216-5.342.791-5.251a3.647,3.647,0,0,1,1.789.916c.051.233-.848.348-.92.794C-5418.594-375.992-5418.325-375.662-5418.113-375.451Z" transform="translate(5420.214 399.798)"/><path class="r" d="M-5420.2-372.727c.036.284.24.31.521.135a11.324,11.324,0,0,1,.727-5.265,2.634,2.634,0,0,0-.459-.128C-5419.988-378.069-5420.277-373.316-5420.2-372.727Z" transform="translate(5420.214 399.798)"/><path class="s" d="M-5415.136-381.919s2.866,5.644,2.249,6.25-5.345-.357-5.345-.357a2.356,2.356,0,0,0-.121,2.329,14.023,14.023,0,0,0,6.506.9c1.427-.475,2.538-.926,2.418-2.756a40.262,40.262,0,0,0-1.16-5.584Z" transform="translate(5420.82 398.412)"/><g transform="translate(5.689 16.492)"><path class="t" d="M-5413.7-375.489a2.423,2.423,0,0,0,.792.9,2.881,2.881,0,0,0,1.533-3.078,5.984,5.984,0,0,0-.125-.726C-5412.51-377.077-5413.794-375.838-5413.7-375.489Z" transform="translate(5416.978 383.163)"/><path class="t" d="M-5411.062-379.275c-.251-1.051-.476-1.861-.476-1.861l-4.543-.784s.379.747.828,1.726A12.984,12.984,0,0,0-5411.062-379.275Z" transform="translate(5416.082 381.92)"/></g><path class="p" d="M-5411.845-377.176a19.043,19.043,0,0,0-1.694,2.7c0,.333,1.282.879,1.694.69,0,0,.533-1.949,1.376-2.5S-5411.845-377.176-5411.845-377.176Z" transform="translate(5422.729 400.083)"/><path class="u" d="M-5415.515-385.345a5.54,5.54,0,0,0-1.112,3.111c-.167,2.068,1.9,2.954,3.45,3.192s4.314.4,4.314,1.3-3.652,4.134-3.482,4.658,2.128,1.306,2.684.76,5.485-6.166,5.485-7.473-7.159-3.267-7.159-3.267Z" transform="translate(5421.561 397.205)"/><path class="v" d="M-5411.462-372.391c1.265-1.463,5.388-6.385,4.611-7.148-.879-.864-7.743-1.114-8.6-2.487a3.274,3.274,0,0,1,.351-3.009l-.091-.05a3.33,3.33,0,0,0-.342,3.111c.888,1.423,7.766,1.672,8.615,2.5.649.638-2.936,5.073-4.641,7.043Z" transform="translate(5421.887 397.296)"/><path class="q" d="M-5411.589-375.027a.6.6,0,0,1,.616-.174,6.642,6.642,0,0,1,1.194.519c1.12.6,1.724,1.332,1.133,1.459s-5.436.26-5.4-.308a3.572,3.572,0,0,1,.772-1.828c.233-.07.428.8.886.83C-5412.1-374.508-5411.791-374.8-5411.589-375.027Z" transform="translate(5422.54 400.722)"/><path class="w" d="M-5410.531-391.961a7.708,7.708,0,0,1,2.86,2.164,2.937,2.937,0,0,1-.707,3.312l-.051-1.927-2.362-1.386Z" transform="translate(5423.764 394.873)"/><path class="x" d="M-5405.86-388.271a2.338,2.338,0,0,0-3.038-1.224,2.24,2.24,0,0,0-.563.33,11.775,11.775,0,0,1-2.137,1.331,20.48,20.48,0,0,0-4.838,3.469s.668,3.493,5.231,2.929c0,0,5.117-3.98,5.378-5.383A1.93,1.93,0,0,0-5405.86-388.271Z" transform="translate(5421.637 395.68)"/><path class="e" d="M-5406.494-389.466l1.224,1.783s-5.979,4.106-7.559,6.4a1.127,1.127,0,0,1-1.3.415,5.348,5.348,0,0,1-2.844-1.938c-.827-1.532,1.1-4.272,4.758-6.137S-5408.456-390.944-5406.494-389.466Z" transform="translate(5421.362 395.399)"/><path class="y" d="M-5408.729-388.742c1.047.111-.183-.88-1.377-1.72a4.585,4.585,0,0,0-2.34.733A17.335,17.335,0,0,0-5408.729-388.742Z" transform="translate(5423.141 395.401)"/><path class="o" d="M-5407.266-390.527l-1.256,2.714-1.833-1.951,1.861-1.693Z" transform="translate(5423.929 395.051)"/><path class="z" d="M-5409.31-391.063l.425-.395,1.227.93-.688,1.488a1.675,1.675,0,0,1-.406-.349A3.385,3.385,0,0,1-5409.31-391.063Z" transform="translate(5424.322 395.05)"/><path class="o" d="M-5406.664-393.369s.078,0,.3.649a5.848,5.848,0,0,1,.226,1.463,3.32,3.32,0,0,1-.37,2.131c-.219.331-1.74-.027-2.237-.525a2.629,2.629,0,0,1-.47-2.38A3.549,3.549,0,0,1-5406.664-393.369Z" transform="translate(5424.318 394.364)"/><path class="aa" d="M-5408.426-389.934c-.152.164-.323.169-.791.034a1.441,1.441,0,0,1-.945-1.662c.333-2.633,2.928-2.5,3.621-2.549a.51.51,0,0,1,.514.28,1,1,0,0,0,.73.509c.135.019.486.118.516.342.09.641-.089,1.225-1.1.913C-5408.171-392.774-5408.13-390.242-5408.426-389.934Z" transform="translate(5423.988 394.114)"/><path class="o" d="M-5408.214-391.715s.156-.644-.217-.641-.717.64-.453.878S-5408.214-391.715-5408.214-391.715Z" transform="translate(5424.447 394.734)"/><path class="f" d="M-5414.124-380.582c.669-1.509,6.6-7.2,6.6-7.2,0-.684-4.193-.928-3.919-2.882.188-1.344,2.165-1.3,2.165-1.3a2.215,2.215,0,0,0,.739,1.923c.952.934,2.487,2.348,2.261,2.881C-5406.794-385.943-5414.124-380.582-5414.124-380.582Z" transform="translate(5422.509 394.873)"/><path class="y" d="M-5409.936-388.884c-.015.027-.876-.77-1.485,2.387-.064.333-.126.683-.18,1.014h0c-.028.189-.061.393-.087.584h0a12.664,12.664,0,0,0-.139,2.311c1.522-1.259,4.078-3.5,4.269-4.481C-5407.512-387.326-5408.761-389.057-5409.936-388.884Z" transform="translate(5423.371 395.933)"/><path class="r" d="M-5408.649-373.58c.287-.061.293-.262.1-.523a11.944,11.944,0,0,1-5.4-.243,1.5,1.5,0,0,0-.09.46C-5414.083-373.319-5409.236-373.454-5408.649-373.58Z" transform="translate(5422.539 401.081)"/><path class="o" d="M-5396.188-387.044a.592.592,0,0,0-.435.3c-.066.15-.521.688-.593.22-.024-.166.638-.269.5-.458s-1.31.3-2.222.676a39.129,39.129,0,0,1-7.067.734,2.644,2.644,0,0,1-1.133-.664l-1.505,2.3a8.467,8.467,0,0,0,1.53,1.09c.3.05,7.658-2.076,8.324-2.112.614-.034,1,.05,1.24,0a2.734,2.734,0,0,0,1.431-.865,1.26,1.26,0,0,0,.171-.909A.653.653,0,0,0-5396.188-387.044Z" transform="translate(5424.57 396.606)"/><path class="e" d="M-5411.742-388.449c-.178.208-.689.811,1.305,3.186s3.736,3.977,5.6,3.76a36.978,36.978,0,0,0,6.382-2.175s-.083-1.645-.581-1.952c0,0-4.193.974-5.309.237S-5409.157-391.467-5411.742-388.449Z" transform="translate(5423.334 395.788)"/></g></g></g></svg>