<svg xmlns="http://www.w3.org/2000/svg" width="120" height="80" viewBox="0 0 120 80"><defs><style>.a{fill:#96d9c9;}.b{fill:#3c8f7c;}.c{fill:#50bfa5;}.d{fill:#184655;}.e{fill:#86b1f2;}.f{fill:#fae0b2;}.g{fill:#355389;}.h{fill:#466eb6;}.i{fill:#ff4c16;}.j{fill:#f47458;}.k{fill:#b75742;}.l{fill:#13375b;}.m{fill:#f7a491;}.n{fill:#9bc1f9;}.o{fill:#f7cc7f;}.p{fill:#f48c7f;}.q{fill:#07345a;}.r{fill:#fff;}</style></defs><g transform="translate(-267.335 -1044.17)"><path class="a" d="M-6138.383-415.767l1.458-1.411a5.081,5.081,0,0,0-4.425-3.945c-4.243-.45-6.406,2.467-7.316,7.146-1.661,8.54.43,44.4.43,44.4.157-.952,11.685-36.963,11.385-46.856Z" transform="translate(6477.36 1485.208)"/><path class="b" d="M-6198.54-386.437l-.18,1.337-.433-1.545a6.167,6.167,0,0,0-3.111-.324c-7.487,1.7,5.45,12,5.45,12a62.423,62.423,0,0,0-8.112-4.228l-.051,1.352-.51-1.533c-3.1-1.216-5.981-1.776-6.557-.022-.542,1.651.548,3.214,2.424,4.605l2.156.075-1.271.533c4.33,2.774,11.491,4.758,13.967,5.21-2.367-.372-8.148-1.124-11.576-.386l.538.9-1.352-.676c-1.2.386-1.945,1.027-1.867,2.037.154,1.931,8.522,2.623,8.522,2.623l30.571-.284.17.085S-6188.686-382.827-6198.54-386.437Z" transform="translate(6479.518 1484.037)"/><path class="c" d="M-6100.5-369.45c-.59-2.738-6.576-3.543-14.208-2.041a77.307,77.307,0,0,0,8.384-4.008l-1.322-.841,2.655.124c2.172-1.272,3.258-2.521,2.549-3.651-.531-.844-1.693-1.195-3.269-1.191l-.831,1.485.172-1.465c-3.976.23-4.877-.419-10.236,1.748,3.352-1.738,3.836-2.279,4.056-2.977l-1.814-.794h2.125c1.719-1.849,4.442-5.5,3.315-7.194-.935-1.392-5.033.54-7.647,1.545l-1.113,2.5.226-2.139c-8.318,3.623-5.5.717-5.5.717s8.681-17.962,3.567-17.556c-2.019.159-4.19,1.376-6.323,3.325l-.054,1.786-.635-1.132a45.617,45.617,0,0,0-4.56,5.346c1.991-4.18,3.5-8.288,3.65-11.346l-1.518-.184,1.5-1.043a3.794,3.794,0,0,0-1.993-3.331c-1.9-.947-3.9.483-5.861,3.335l.482,2.571-1.219-1.441c-7.035,11.467-13.468,39.7-13.468,39.7l-.511,1.531,20.666,1.021S-6099.313-363.923-6100.5-369.45Z" transform="translate(6477.381 1484.895)"/><g transform="translate(268.328 1119.287)"><path class="d" d="M-6092.509-363.272h-118.284a.344.344,0,0,1-.361-.324.343.343,0,0,1,.325-.36h118.32a.343.343,0,0,1,.361.323.344.344,0,0,1-.324.361Z" transform="translate(6211.155 363.958)"/></g><path class="e" d="M-6132.067-376.124h-48.478a3.209,3.209,0,0,1-3.353-3.042v-1.809a3.208,3.208,0,0,1,3.353-3.042h48.478a5.447,5.447,0,0,0-.186,7.7l.1.1Z" transform="translate(6478.547 1483.801)"/><path class="f" d="M-6131.9-383.078H-6156.3a3.042,3.042,0,0,0-3.043,3.042h0a3.043,3.043,0,0,0,3.043,3.042h24.4A5.848,5.848,0,0,1-6131.9-383.078Z" transform="translate(6477.705 1483.765)"/><g transform="translate(299.91 1090.698)"><path class="g" d="M-6134.064-392.963c.105-.183-.056-.394-.3-.394h-38.606c-3.026,0-5.48,2.028-5.48,4.521h0c0,2.5,2.455,4.521,5.48,4.521h38.616c.247,0,.409-.212.3-.4h0A8.036,8.036,0,0,1-6134.064-392.963Z" transform="translate(6178.451 393.357)"/><path class="f" d="M-6133.848-392.35h-25.9a3.464,3.464,0,0,0-3.466,3.463v.262a3.465,3.465,0,0,0,3.463,3.465h25.96A7.987,7.987,0,0,1-6133.848-392.35Z" transform="translate(6177.928 393.322)"/></g><path class="f" d="M-6181.142-394.08h24.916a4.165,4.165,0,0,0,4-4.314h0a4.165,4.165,0,0,0-4-4.314h-24.916a7.014,7.014,0,0,1,.178,8.383Z" transform="translate(6478.453 1484.3)"/><path class="h" d="M-6152.578-398.409h0a4.185,4.185,0,0,0-4.045-4.314h-24.994a.217.217,0,0,1-.21-.225h0a.216.216,0,0,1,.21-.221h39.649a4.621,4.621,0,0,1,4.466,4.761h0a4.622,4.622,0,0,1-4.466,4.761h-39.649a.216.216,0,0,1-.21-.221h0a.216.216,0,0,1,.209-.225h24.995A4.186,4.186,0,0,0-6152.578-398.409Z" transform="translate(6478.477 1484.316)"/><g transform="translate(323.961 1095.347)"><path class="i" d="M-6149.841-388.6h-2.667c-.573,0-1.038.178-1.038.4v.036h3.705Z" transform="translate(6153.545 388.597)"/><path class="j" d="M-6147.529-387.6c0-.55-.7-1-1.556-1h-3.421c.652,0,1.179.338,1.179.755l-.016,10.677,1.891-1.373,1.931,1.373Z" transform="translate(6153.509 388.597)"/></g><g transform="translate(290.33 1107.794)"><path class="k" d="M-6112.289-375.859h-72.031a4.049,4.049,0,0,0-4.051,4.05v3.407a4.05,4.05,0,0,0,4.051,4.05h72.031l-.037-.04A8.248,8.248,0,0,1-6112.289-375.859Z" transform="translate(6188.371 375.859)"/><path class="f" d="M-6112.417-374.1h-38.507a4.05,4.05,0,0,0-4.051,4.05h0a4.051,4.051,0,0,0,4.051,4.05h38.507A8.254,8.254,0,0,1-6112.417-374.1Z" transform="translate(6187.225 375.799)"/></g><g transform="translate(341.89 1113.569)"><path class="l" d="M-6130.638-369.879h-3.123a1.216,1.216,0,0,0-1.218,1.216h0v.109h4.34Z" transform="translate(6134.979 369.879)"/><path class="g" d="M-6133.586-369.875a3.823,3.823,0,0,1,2.49,1.411l7.408,9.187h4.351l-7.046-8.737a5.037,5.037,0,0,0-3.283-1.86Z" transform="translate(6134.931 369.879)"/></g><g transform="translate(276.363 1091.734)"><path class="k" d="M-6201.144-365.005l1.518-.354a10.514,10.514,0,0,0,2.38-.156,3.842,3.842,0,0,1,.165.935c.008.109-.147.65-.255.666-.386.06-1.078-.008-2.3.02a9.082,9.082,0,0,1-2.949-.112C-6203.612-364.345-6201.144-365.005-6201.144-365.005Z" transform="translate(6202.834 391.564)"/><path class="d" d="M-6183.956-390.775c.084.881.824,1.192,1.514,1.749.463.374.387,1.385.03,2.014-.9,1.59-.132,1.787.589,2.955,1.739,2.813-3.651,3.435-4.291,3.645a4.431,4.431,0,0,1-1.448.421c-1.14-.126-2.182-1.747-2.762-3.246s.826-1.578.9-2.439-1.573-1.046-1.085-2.672c.528-1.76,1.272-3.251,2.262-3.786a3.482,3.482,0,0,1,4.078.751A1.377,1.377,0,0,1-6183.956-390.775Z" transform="translate(6202.415 392.49)"/><path class="f" d="M-6183.95-370.872c.142.352.921,1.6.921,1.6l-10.944.109-.171-2.245c3-.024,5.975-1.352,8.744-2.3C-6185.331-373.538-6184.021-371.043-6183.95-370.872Z" transform="translate(6202.536 391.846)"/><path class="c" d="M-6191.629-379.856s.588-4.152,1.532-4.579,6.064.166,6.83.633-.509,5.34-.705,6.7c-.011.081-.024.163-.038.244a11.394,11.394,0,0,0,.557,5.841c-2.8.851-3.527,1.318-6.53,1.235l-1.121-6.562S-6191.992-379.515-6191.629-379.856Z" transform="translate(6202.453 392.219)"/><path class="m" d="M-6185.9-387.27a23.609,23.609,0,0,0,.438,2.844c.2.56-.542,1.7-1.75,2.015s-.33-1.217-.358-1.81-.146-3.4-.146-3.4Z" transform="translate(6202.32 392.323)"/><path class="j" d="M-6185.862-387.008a2.24,2.24,0,0,1-.553.457,1.671,1.671,0,0,1-1.238.246c-.03-.706-.055-1.309-.055-1.309l1.819.345S-6185.883-387.17-6185.862-387.008Z" transform="translate(6202.315 392.323)"/><path class="m" d="M-6186.346-391.579a2.075,2.075,0,0,1,1.136.886,2.8,2.8,0,0,1-.845,3.6c-1.5.884-2.591-.483-2.563-1.774S-6188.253-391.876-6186.346-391.579Z" transform="translate(6202.346 392.46)"/><path class="m" d="M-6189.089-389.354c.016.336.187.6.386.589s.34-.29.323-.626-.186-.6-.387-.589S-6189.106-389.69-6189.089-389.354Z" transform="translate(6202.363 392.404)"/><path class="m" d="M-6185.133-388.817c-.12.332-.034.666.192.746s.5-.124.619-.456.034-.666-.192-.746S-6185.016-389.148-6185.133-388.817Z" transform="translate(6202.229 392.38)"/><path class="b" d="M-6183.016-383.773a3.532,3.532,0,0,0-1.408,1.738c-.535,1.278,1.287,7.8,1.676,8.214a.966.966,0,0,0,1.365.017.959.959,0,0,0,.282-.555C-6180.916-375.382-6181.535-383.45-6183.016-383.773Z" transform="translate(6202.205 392.191)"/><path class="n" d="M-6188.588-384.68l1.5,9.038-5.858.944-1.861-8.455S-6189.982-385.1-6188.588-384.68Z" transform="translate(6202.559 392.224)"/><path class="n" d="M-6200.077-384.4a3.142,3.142,0,0,1,1.76-.161c1.1.214,2.839.659,3.539,1.41,1.055,1.135,2.028,8.639,2.028,8.639l-4.554-1.021-2.778-8.867Z" transform="translate(6202.74 392.22)"/><path class="o" d="M-6184.271-368.71c-.766-2.125-9.443-9.869-11.739-9.271l1.232,4.721s2.579,7.686,5.1,8.678a6.712,6.712,0,0,0,4.892-.127A4.776,4.776,0,0,0-6184.271-368.71Z" transform="translate(6202.6 391.993)"/><path class="m" d="M-6187.081-381.242c-.108.216.579.6.783.747s1.032,0,1.032,0S-6186.964-381.483-6187.081-381.242Z" transform="translate(6202.294 392.105)"/><path class="p" d="M-6194.929-370.8a55.107,55.107,0,0,0-2.212,5.059c-.011.688-3.187.5-2.5.2.158-.068.659-.321.7-.354.206-.177,2.036-5.868,2.036-5.868Z" transform="translate(6202.728 391.778)"/><path class="o" d="M-6194.192-376.447a1.6,1.6,0,0,0-2.084.511c-.86,1.072-2.51,9.415-2.51,9.415l2.028.2S-6191.711-373.71-6194.192-376.447Z" transform="translate(6202.695 391.946)"/><path class="j" d="M-6200.823-382.959l2.607,7.606a.846.846,0,0,0,.677.568c2.444.346,3.722.521,3.722.521s.478.025.983.031l5.6-.6a.861.861,0,0,0,.745-.964c0-.019,0-.039-.008-.058l-1.363-7.468a.84.84,0,0,0-.957-.694l-5.385.906-1.416-.039-4.237-.948a.853.853,0,0,0-1.005.671A.854.854,0,0,0-6200.823-382.959Z" transform="translate(6202.767 392.202)"/><path class="m" d="M-6189.04-379.151a16.274,16.274,0,0,0,2.015.263,5.328,5.328,0,0,1,1.179.147s1.677,3.944,1.917,4.382c.719,1.313,2.71,1.159,2.677.063-.026-.869-3.428-6.327-4.332-6.3s-3.736-.563-3.821-.2c-.044.193,2.607.284,2.188.448-.259.1-2.336-.131-2.329.113s1.875.267,2.077.457-1.988-.232-1.976.182c.006.209,1.932.058,2.14.375C-6187.216-379.09-6189.2-379.562-6189.04-379.151Z" transform="translate(6202.378 392.093)"/><g transform="translate(2.882 12.281)"><path class="m" d="M-6199.526-379.755a.206.206,0,0,0-.272.106.133.133,0,0,0-.012.035.424.424,0,0,0,.058.386c.194.2,1.5.4,1.509.2C-6198.23-379.179-6199.117-379.578-6199.526-379.755Z" transform="translate(6199.85 379.772)"/><path class="m" d="M-6199.783-379.229s-.131.492-.018.5,1.536.145,1.6-.024S-6199.6-379.325-6199.783-379.229Z" transform="translate(6199.851 379.754)"/><path class="m" d="M-6199.843-378.7a.446.446,0,0,0,.077.346c.118.126,1.442.043,1.49-.167S-6199.8-378.863-6199.843-378.7Z" transform="translate(6199.851 379.738)"/><path class="m" d="M-6199.634-378.226a.421.421,0,0,0,.065.239c.066.071,1.044-.028,1.142-.237S-6199.52-378.442-6199.634-378.226Z" transform="translate(6199.843 379.725)"/></g><path class="m" d="M-6196.333-366.271a28.825,28.825,0,0,1-.936,2.807c-.307.731-.386,1.461-.589,1.826a1.233,1.233,0,0,1-1.606.681,1.244,1.244,0,0,1-.416-.275c-.667-.554.229-2.9.229-2.9l2.107-2.964Z" transform="translate(6202.741 391.618)"/><path class="j" d="M-6197.864-361.533c.18-.324.263-.937.495-1.582a1.883,1.883,0,0,1-1.158.249,1.384,1.384,0,0,1-1.132-1.159s-1.123,2.4-.455,2.952a1.465,1.465,0,0,0,2.064-.18A1.54,1.54,0,0,0-6197.864-361.533Z" transform="translate(6202.748 391.513)"/><path class="k" d="M-6194.017-383.074l1.725,8.928-1.038-.062-.3-.021-1.8-8.884Z" transform="translate(6202.581 392.168)"/><path class="f" d="M-6188.113-365.087a2.705,2.705,0,0,0,2.828,1.167,3.012,3.012,0,0,0,2.808-2.085,5.463,5.463,0,0,0-.966-4.346c-4.367-5.771-4.4-6.34-6.14-7.106-1.877-.828-8.848,11.081-8.848,11.081l1.914.978a50.663,50.663,0,0,0,4.706-4.5,13.462,13.462,0,0,0,.83-1.528S-6188.5-365.806-6188.113-365.087Z" transform="translate(6202.683 391.975)"/></g><g transform="translate(289.226 1083.624)"><path class="o" d="M-6187.742-400.589a2.112,2.112,0,0,0-1.746,2.423,2.119,2.119,0,0,0,.839,1.367,1.405,1.405,0,0,1,.537.82l.264,1.128a.614.614,0,0,0,.688.466l.7-.105a.613.613,0,0,0,.52-.649c-.082-1.159-.193-1.585.188-2.1a2.113,2.113,0,0,0-.433-2.956A2.111,2.111,0,0,0-6187.742-400.589Z" transform="translate(6189.515 400.61)"/><g transform="translate(1.006 1.952)"><path class="f" d="M-6187.3-395.2h0a.17.17,0,0,1-.192-.144h0l-.344-2.46-.58-.493a.17.17,0,0,1-.009-.24.171.171,0,0,1,.23-.017l.676.579.362,2.587A.172.172,0,0,1-6187.3-395.2Z" transform="translate(6188.473 398.588)"/></g><g transform="translate(2.414 1.771)"><path class="f" d="M-6186.4-395.227h0a.171.171,0,0,0,.141-.193l-.4-2.452.4-.642a.171.171,0,0,0-.054-.236.173.173,0,0,0-.236.055h0l-.473.75.419,2.578a.17.17,0,0,0,.2.139Z" transform="translate(6187.014 398.775)"/></g><path class="a" d="M-6188.069-395.854a.2.2,0,0,0,.007.028l.263,1.128a.613.613,0,0,0,.688.466l.7-.105a.614.614,0,0,0,.52-.649c-.036-.517-.08-.887-.082-1.185Z" transform="translate(6189.464 400.457)"/></g><path class="j" d="M-6188.116-419.336l-.731-1.062h-1.286a.177.177,0,0,1-.178-.177.175.175,0,0,1,.037-.107l.78-1.023-.4-1.223a.176.176,0,0,1,.111-.223.179.179,0,0,1,.115,0l1.212.426,1.04-.758a.176.176,0,0,1,.246.038.178.178,0,0,1,.034.109l-.029,1.285,1.042.753a.177.177,0,0,1,.039.246.179.179,0,0,1-.091.066l-1.232.369-.4,1.224a.176.176,0,0,1-.217.123A.17.17,0,0,1-6188.116-419.336Z" transform="translate(6478.767 1484.842)"/><path class="n" d="M-6117.966-417.311l-.538-.773h-.944a.13.13,0,0,1-.131-.128.122.122,0,0,1,.028-.08l.573-.751-.29-.9a.13.13,0,0,1,.084-.164.126.126,0,0,1,.082,0l.891.313.763-.557a.128.128,0,0,1,.18.026.121.121,0,0,1,.026.082l-.022.944.766.553a.13.13,0,0,1,.028.182.128.128,0,0,1-.066.048l-.9.27-.29.9a.13.13,0,0,1-.162.088A.134.134,0,0,1-6117.966-417.311Z" transform="translate(6476.34 1484.755)"/><path class="p" d="M-6133.75-429.077l-1.187-.2-.7,1.012-1.315-.318-.408,1.307-1.5-.29-.524,1.159-1.493-.046.017-.565,1.116.035.553-1.221,1.449.283.416-1.329,1.449.352.675-.988,1.1.185.31-.743.521.218Z" transform="translate(6477.071 1484.949)"/><path class="c" d="M-6168.556-425.279l-.87.267-.579-1.352-1.319.234-.6-.941-.476.305.805,1.255,1.256-.221.608,1.406,1.308-.4Z" transform="translate(6478.153 1484.936)"/><path class="p" d="M-6194.98-410.384l-1.3.792,1.354,6.065a.783.783,0,0,0,.936.594.79.79,0,0,0,.237-.095h0a.787.787,0,0,0,.356-.847l-.332-1.424,1.365-.83,1.129.945a.785.785,0,0,0,.911.069l.024-.015a.785.785,0,0,0,.265-1.078.805.805,0,0,0-.168-.194Zm.881,3.654-.25-1.114.877.733Z" transform="translate(6478.972 1484.499)"/><path class="o" d="M-6113.631-404.577a1.929,1.929,0,0,1,.9-1.378c.352-.24.64-.445.717-.726.134-.483-.375-.717-.883-.715a.483.483,0,0,1-.483-.472h0a.489.489,0,0,1,.465-.5,3.149,3.149,0,0,1,1,.114c1.09.3,1.418,1.043,1.229,1.729a2.136,2.136,0,0,1-1.087,1.193,1.523,1.523,0,0,0-.749,1.062Zm-.532,1.081a.767.767,0,0,1,.954-.519.766.766,0,0,1,.518.953.767.767,0,0,1-.945.521.742.742,0,0,1-.541-.9.533.533,0,0,1,.016-.056Z" transform="translate(6476.156 1484.44)"/><g transform="translate(324.209 1048.07)"><path class="o" d="M-6151.388-437.108a1.921,1.921,0,0,0-1.9,1.942,1.925,1.925,0,0,0,.567,1.341,1.277,1.277,0,0,1,.372.81l.084,1.051a.557.557,0,0,0,.556.513h.643a.557.557,0,0,0,.555-.513c.085-1.056.04-1.448.455-1.861a1.921,1.921,0,0,0,.01-2.716A1.921,1.921,0,0,0-6151.388-437.108Z" transform="translate(6153.288 437.108)"/><g transform="translate(0.923 1.651)"><path class="f" d="M-6151.72-432.21h0a.154.154,0,0,1-.152-.156l.025-2.259-.451-.522a.154.154,0,0,1,.024-.217.153.153,0,0,1,.208.015l.528.61-.025,2.376a.156.156,0,0,1-.156.154Z" transform="translate(6152.332 435.399)"/></g><g transform="translate(2.127 1.736)"><path class="f" d="M-6150.9-432.113h0a.153.153,0,0,0,.151-.156l-.024-2.259.451-.522a.153.153,0,0,0-.007-.218.154.154,0,0,0-.219.007l-.007.01-.527.61.026,2.376a.155.155,0,0,0,.156.154Z" transform="translate(6151.086 435.311)"/></g><path class="a" d="M-6152.327-432.9v.026l.084,1.051a.558.558,0,0,0,.555.513h.644a.557.557,0,0,0,.555-.513c.038-.47.049-.809.087-1.077Z" transform="translate(6153.256 436.964)"/></g><path class="f" d="M-6147.993-440.089l-1.468,2.489,2.489-1.85Z" transform="translate(6477.366 1485.28)"/><path class="f" d="M-6154.121-440.766l1.5,2.555-.255-2.935Z" transform="translate(6477.526 1485.316)"/><path class="f" d="M-6156.822-436.965l2.387.939-2.436.146Z" transform="translate(6477.62 1485.173)"/><path class="f" d="M-6149.2-433.482l.956,1.212.7-.83Z" transform="translate(6477.357 1485.053)"/><path class="f" d="M-6148.206-435.826l2.169-.893.064.957Z" transform="translate(6477.323 1485.165)"/><path class="f" d="M-6154.158-433.283l-2.042.957.638.766Z" transform="translate(6477.597 1485.047)"/><path class="a" d="M-6179.225-419.9a9.875,9.875,0,0,1,1.586.334,3.044,3.044,0,0,1,1.484.748,1.2,1.2,0,0,1,.342,1.224,1.255,1.255,0,0,1-1.2.886v.015a1.383,1.383,0,0,1,.683,1.613,1.475,1.475,0,0,1-.875.97,3.5,3.5,0,0,1-2.229-.116,9.9,9.9,0,0,1-1.279-.451Zm.609,2.377.4.113c.633.181,1.046.017,1.159-.378s-.131-.7-.676-.859a3.309,3.309,0,0,0-.521-.115Zm-.676,2.36a4.176,4.176,0,0,0,.461.149c.544.155,1.085.088,1.245-.472.154-.537-.267-.887-.869-1.062l-.41-.117Z" transform="translate(6478.438 1484.749)"/><path class="o" d="M-6126-417.718a.555.555,0,0,1-.408.664,5.194,5.194,0,0,1-1.029.132,2.886,2.886,0,0,1-3.256-2.46,3.031,3.031,0,0,1-.027-.465,3.092,3.092,0,0,1,2.836-3.326,3.063,3.063,0,0,1,.365-.007,4.619,4.619,0,0,1,.945.06.555.555,0,0,1,.451.644l0,.024v.019a.556.556,0,0,1-.637.429,3.092,3.092,0,0,0-.647-.045,2,2,0,0,0-1.852,2.128,2,2,0,0,0,1.994,1.857,3.632,3.632,0,0,0,.613-.077.555.555,0,0,1,.655.421Z" transform="translate(6476.723 1484.837)"/><path class="h" d="M-6196.294-388.49a.849.849,0,0,1,.533-1.062.845.845,0,0,1,1.071.53.846.846,0,0,1-.531,1.071.846.846,0,0,1-1.071-.53Zm-.148-1.314-1.412-3.372a.529.529,0,0,1,.283-.691l.025-.01.342-.124a.528.528,0,0,1,.677.318l.007.025,1.071,3.5Z" transform="translate(6479.028 1484.058)"/><g transform="translate(336.836 1082.627)"><path class="p" d="M-6129.816-392.9s3.639,1.586,3.96,1.656c.2.044,2.511-2.352,3.773-3.288.059-.044.282-.362.345-.394.751-.377-.517,1.793-.517,1.793a31.416,31.416,0,0,1-3.289,3.7c-.764.367-4.529-1.5-4.507-1.6Z" transform="translate(6139.863 401.511)"/><path class="d" d="M-6130.747-396.535c.156-1.072.9-3.355.215-4.267a2.559,2.559,0,0,0-3.6-.365,2.534,2.534,0,0,0-.369.37,6.5,6.5,0,0,0-.914,1.936,9.554,9.554,0,0,1-.514,1.291,2.569,2.569,0,0,1-.766,1.055c-1.6,1-3.4,1.642-3.511,3.888-.137,2.665,2.782,6,6.369,4.386a9.364,9.364,0,0,0,3.757-4c.265-.623.138-.558-.008-1.507C-6130.216-394.6-6130.869-395.673-6130.747-396.535Z" transform="translate(6140.211 401.744)"/><path class="g" d="M-6132.462-394.7l4.871,2.68-1.148,1.744s-3.67-1.4-4.407-1.6S-6133.307-394.775-6132.462-394.7Z" transform="translate(6139.981 401.502)"/><path class="m" d="M-6132.522-397.114s-.126,1.855-.221,2.375c-.1.537-.157,2.774.96,3.048s.7-2.756.717-3.3.127-2.308.127-2.308Z" transform="translate(6139.958 401.591)"/><path class="j" d="M-6132.529-396.891a2.143,2.143,0,0,0,.3.358,1.482,1.482,0,0,0,1.221.464c.035-.615.074-1.228.074-1.228l-1.583.184S-6132.52-397.025-6132.529-396.891Z" transform="translate(6139.949 401.591)"/><path class="m" d="M-6131.38-400.783a1.9,1.9,0,0,0-1.2.558,2.564,2.564,0,0,0,.021,3.388c1.159,1.1,2.313.155,2.552-1.006S-6129.609-400.657-6131.38-400.783Z" transform="translate(6139.972 401.711)"/><path class="d" d="M-6130.775-400.736s-.708,1.829-2.383,1.675c-.758-.071-.929.966-.929.966s.62-2.46,1.4-2.825A2.666,2.666,0,0,1-6130.775-400.736Z" transform="translate(6140.002 401.719)"/><path class="m" d="M-6132.929-398.556c.04.321-.1.6-.322.628s-.424-.213-.462-.534.106-.6.322-.628S-6132.967-398.874-6132.929-398.556Z" transform="translate(6139.99 401.653)"/><path class="k" d="M-6120.164-397.919l-4.124,8.425a.4.4,0,0,0,.068.514l3.012,1.764,3.767-7.466-2.256-3.38C-6119.812-398.228-6120.046-398.159-6120.164-397.919Z" transform="translate(6139.668 401.621)"/><path class="f" d="M-6123.738-389.742l3.588-7.332c.118-.24.353-.309.465-.14l1.8,2.69-3.38,6.7-2.4-1.408A.4.4,0,0,1-6123.738-389.742Z" transform="translate(6139.649 401.591)"/><path class="p" d="M-6121.708-395.1a.855.855,0,0,1,.32-.256c.173-.046.385-.04.419.072.05.163-.463.344-.463.344l-.28.406A.747.747,0,0,1-6121.708-395.1Z" transform="translate(6139.579 401.525)"/><path class="m" d="M-6132.66-395.166s1.27,1.049,1.634,1.413a9.358,9.358,0,0,0,.995.8l-1.026-1.42-.65-.607Z" transform="translate(6139.953 401.518)"/><path class="p" d="M-6116.917-378.081a2.369,2.369,0,0,1-.451-.837c-.426-2.209-2.444-8.181-4.64-8.181-1.914,0-7.822,4.635-10.591,7.317-.8.773-.746.117-.255.3.289.108,2.266,3.392,2.581,3.406a5.371,5.371,0,0,0,2.664-1.052,7.682,7.682,0,0,0,2.8-2.534,43.023,43.023,0,0,0,3.03-5.322,24.431,24.431,0,0,0,.766,2.637c.569,1.159,2.271,4.008,2.934,5.118l2.608-.07A13.349,13.349,0,0,1-6116.917-378.081Z" transform="translate(6139.972 401.241)"/><path class="m" d="M-6121.775-385.824s-8.762,4.084-9.315,5.487-.128,3.488,1.147,3.913,9.188-6.338,9.188-6.338a13.4,13.4,0,0,0,2.468,3.148,26.07,26.07,0,0,0,2.818,1.738,1.987,1.987,0,0,1,.8.861l1.829.085s-.308-.105-.862-.851C-6115.571-380.3-6119.9-386.152-6121.775-385.824Z" transform="translate(6139.908 401.198)"/><path class="l" d="M-6125.253-386.351a14.548,14.548,0,0,1,3.367,7.033s-4.41,1.9-6.58,3.049a4.249,4.249,0,0,1-5.359-1.318c-.765-1.277,0-4.871,0-4.871l4.508-.7Z" transform="translate(6140.004 401.216)"/><path class="g" d="M-6118.033-377.666c-.224-.085-.3,1.049-.341,1.3a.605.605,0,0,0,.131.5,26.417,26.417,0,0,0,4.4-.05.656.656,0,0,0,.161-.086c.507-.442-1.84-1.618-2.316-1.519A3.17,3.17,0,0,1-6118.033-377.666Z" transform="translate(6139.463 400.918)"/><path class="h" d="M-6132.8-394.655s-.688-.007-1.424,1.577c-.9,1.947.387,9.374.291,10.429,0,0,.317.366,2.173.634a2.869,2.869,0,0,0,2.571-.936,17.07,17.07,0,0,1,.216-5.565c.342-1.462.523-2.88-.833-4.193A10.076,10.076,0,0,0-6132.8-394.655Z" transform="translate(6140.018 401.501)"/><path class="h" d="M-6114.9-377.594c-.224-.085-.417,1.007-.4,1.275a1.1,1.1,0,0,0,.125.52,26.591,26.591,0,0,0,4.4-.07.679.679,0,0,0,.162-.086c.507-.442-2.1-1.55-2.576-1.449A2.339,2.339,0,0,1-6114.9-377.594Z" transform="translate(6139.357 400.915)"/><path class="j" d="M-6117.63-398.281l-6.834,9.951c-.158.229-.12.509.078.579l4.622,1.723,5.465-7.837-2.727-4.519C-6117.149-398.584-6117.458-398.534-6117.63-398.281Z" transform="translate(6139.675 401.633)"/><path class="m" d="M-6119.555-390.526c-.088-.169-.8.207-.8.207a5.459,5.459,0,0,1-.675.086c-.05-.026.424-.067.424-.067s.772-.266.768-.352c-.037-.358-.522.088-.9.1a5.037,5.037,0,0,1-.886-.04c-.113-.063.172-.2.172-.2s.375-.168.314-.266c-.145-.239-1.018.214-1.2.386a2.692,2.692,0,0,1-.492.453c-.933.527-2.05,1.433-3.37,2.068-.436-.367-4.651-4.152-4.756-4.241l-2.3,1.813s6.6,5.029,6.971,5.022c.461-.015,3.21-2.916,3.954-3.608a2.466,2.466,0,0,1,1.013-.156,3.374,3.374,0,0,0,1.241-.279c.249-.264-.92,0-.809-.066a4.336,4.336,0,0,1,.619-.1.953.953,0,0,0,.587-.29c.07-.154-.651.068-.651.068l-.6.037.575-.117S-6119.469-390.361-6119.555-390.526Z" transform="translate(6139.974 401.423)"/><path class="e" d="M-6131.643-393.6a1.578,1.578,0,0,0-2.231-.071,1.585,1.585,0,0,0-.361.508,3.01,3.01,0,0,0,.021,1.489c.529,1.276,3.616,3.361,3.616,3.361l1.7-2.318Z" transform="translate(6140.01 401.482)"/></g><g transform="translate(309.632 1056.471)"><path class="m" d="M-6163.257-416.607c0-.1.121-.728.121-.728s-.281-.894-.31-.9c-.579-.042-1.012.352-.915.879l.006.017a2.683,2.683,0,0,0,2.087,1.835l.7.125a3.95,3.95,0,0,1-.181-1.177A10.153,10.153,0,0,1-6163.257-416.607Z" transform="translate(6168.245 428.233)"/><path class="g" d="M-6153.42-420.636c-.017-.048-5.076,3.244-5.076,3.244s-2.162.021-3.756.008a5.032,5.032,0,0,0,.2,1.41,31.218,31.218,0,0,0,3.781.579,33.466,33.466,0,0,0,4.581-1.964S-6153.41-420.6-6153.42-420.636Z" transform="translate(6168.172 428.316)"/><path class="h" d="M-6153.092-408.361a34.8,34.8,0,0,1-1.191-7.033,9.826,9.826,0,0,1,1.106-5.247,8.367,8.367,0,0,1,1.539-.49l-.506.839a9.983,9.983,0,0,0-.877,2.925c-.647,3.176,2.261,9.53,2.113,9.571C-6151.072-407.747-6153.051-408.035-6153.092-408.361Z" transform="translate(6167.9 428.333)"/><path class="n" d="M-6164.565-421.18l-.888.579,2.656,4.469.834-3.629Z" transform="translate(6168.282 428.334)"/><path class="n" d="M-6163.963-421.907l1.116,3.709.894-1.6Z" transform="translate(6168.23 428.359)"/><path class="n" d="M-6156.526-422.352l.858,3.114-6.326-.575Z" transform="translate(6168.164 428.375)"/><path class="m" d="M-6160.254-408.729s-2.689,3.283-2.7,3.766c-.011.688-3.188.5-2.5.2.157-.068.658-.321.7-.354.206-.177,2.324-4.322,2.324-4.322Z" transform="translate(6168.286 427.932)"/><path class="q" d="M-6166.946-404.3l2.043-.635a3.024,3.024,0,0,0,1.854.127,2.73,2.73,0,0,1,.35,1.112c.009.109.062.431-.045.448-.387.06-1.473.035-2.691.063a10.329,10.329,0,0,1-2.671-.32C-6169.137-403.843-6166.946-404.3-6166.946-404.3Z" transform="translate(6168.382 427.777)"/><path class="k" d="M-6147.219-408.1a14.6,14.6,0,0,1-4.678-2.17c-2.616-1.871-5.559-3.816-6.721-3.658-.936.127-6.381,7.614-6.381,7.614l2.638,1.148,4.763-4.892s4.868,5.022,6.469,5.36C-6147.492-403.912-6146.328-406.6-6147.219-408.1Z" transform="translate(6168.267 428.086)"/><path class="o" d="M-6165.581-420.585l3.669,7.77a.127.127,0,0,0,.087.07l2.45.681-3.131-7.7-2.917-1a.127.127,0,0,0-.165.074A.123.123,0,0,0-6165.581-420.585Z" transform="translate(6168.287 428.32)"/><path class="q" d="M-6152.714-428.193a.847.847,0,0,1,1.169-.265.851.851,0,0,1,.265.265.628.628,0,0,1,.85.108s.842-.375,1.222.908a.442.442,0,0,1,.55.3.467.467,0,0,1,.017.091,1.342,1.342,0,0,1-.1.919s.277.157.225.664a.612.612,0,0,1-.386.539s0,.717-.283.966a1.011,1.011,0,0,1-.708.2s-.062.4-.424.408-.848-.272-1.227-.07a4.335,4.335,0,0,1-1.438.174,1.459,1.459,0,0,1-1.032-1.6.876.876,0,0,1-.23-1.206,1.524,1.524,0,0,1,.173-1.7A2.031,2.031,0,0,1-6152.714-428.193Z" transform="translate(6167.903 428.589)"/><path class="m" d="M-6156.582-397.892s.149,4.041.242,4.725-1.715,2.734-1.484,2.019c.054-.164.193-.708.193-.758,0-.27-.67-4.881-.67-4.881Z" transform="translate(6168.037 427.535)"/><path class="q" d="M-6158.533-389.717l.86-1.959a3.031,3.031,0,0,0,1.312-1.317,2.721,2.721,0,0,1,1.068.465c.087.065.366.236.307.328-.211.334-.939,1.134-1.719,2.073a10.365,10.365,0,0,1-1.993,1.807C-6159.628-387.769-6158.533-389.717-6158.533-389.717Z" transform="translate(6168.063 427.367)"/><path class="j" d="M-6158.391-394.141c.193-.193-1.912-10.526-.894-11.527s7.822-2.467,7.822-2.467l.894-3.148s2.847.834,4,2.552c.63.94-.015,3.081-.127,3.318-.973,2.028-3.375,2.125-5.118,2.109-1.608-.016-4.463-.039-4.463-.039l-.006,9.138a5.607,5.607,0,0,1-1.255.149A3,3,0,0,1-6158.391-394.141Z" transform="translate(6168.08 427.995)"/><path class="r" d="M-6151.858-420.924l1.845-.662h.071c.193-.025,2.374,7.093,3.083,9.786s-.22,2.182-.22,2.182a8.075,8.075,0,0,1-3.519,1.084c-1.967.074-1.575-2.3-1.575-2.3a41.43,41.43,0,0,1-.914-6.636A9.008,9.008,0,0,1-6151.858-420.924Z" transform="translate(6167.857 428.348)"/><path class="m" d="M-6151.783-422.465l-.005.908v.161s-.126,1.554.319,1.793,1.5-2.077,1.5-2.077l-.483-2.635Z" transform="translate(6167.813 428.442)"/><path class="j" d="M-6150.294-423.458a3.04,3.04,0,0,1-1.5,1.9l.006-.906,1.334-1.85Z" transform="translate(6167.813 428.442)"/><path class="m" d="M-6151.806-427.088a1.415,1.415,0,0,0-1.667,1.107,1.529,1.529,0,0,0-.028.245,10.849,10.849,0,0,0,.058,1.362c.132,1.229.919,2.344,1.476,2.272a2.651,2.651,0,0,0,1.836-2.809A2.343,2.343,0,0,0-6151.806-427.088Z" transform="translate(6167.872 428.538)"/><path class="m" d="M-6150.424-424.655a.413.413,0,0,0,.522.259.414.414,0,0,0,.26-.522.413.413,0,0,0-.443-.277A.455.455,0,0,0-6150.424-424.655Z" transform="translate(6167.767 428.472)"/><path class="q" d="M-6154.341-427.421c-.518.529-.631,1.247-.253,1.6a1.219,1.219,0,0,0,1.62-.311c.518-.529.632-1.247.253-1.6A1.218,1.218,0,0,0-6154.341-427.421Z" transform="translate(6167.917 428.565)"/><path class="q" d="M-6152.717-427.227c.025.2.285.328.579.29s.514-.228.489-.427-.284-.328-.579-.29S-6152.742-427.426-6152.717-427.227Z" transform="translate(6167.845 428.557)"/><path class="q" d="M-6154.164-425.445a.462.462,0,0,0,.519.393.46.46,0,0,0,.392-.519.459.459,0,0,0-.513-.393A.463.463,0,0,0-6154.164-425.445Z" transform="translate(6167.895 428.499)"/><path class="h" d="M-6149.926-421.59a7.041,7.041,0,0,1,2.415-.035c.386.164.876,3.436.876,3.436a34.414,34.414,0,0,0,.245,4.242c.765,3.164,1.835,5.934,1.712,6.09-.783.645-4.068,1.244-4.316.936C-6151.753-410.32-6149.926-421.59-6149.926-421.59Z" transform="translate(6167.77 428.353)"/><path class="m" d="M-6147.1-418.157s-1.808,5.586-2.6,6.172-4.346-4.9-4.346-4.9-1.574-.893-1.686-.9c-.446-.038.931-.268.931-.268l.17-1.425s.067.011.483.473c.556.626,1.039,1.6,1.265,1.76l2.382,1.808,1.211-3.871Z" transform="translate(6167.951 428.276)"/><path class="f" d="M-6162.4-419.729l.75-.072,3.2,7.979-.823-.209Z" transform="translate(6168.177 428.287)"/><path class="o" d="M-6155.242-421.745l1.932,9.394a.253.253,0,0,1-.2.3.231.231,0,0,1-.044.006l-4.863.151-3.206-7.979,6.05-2.062a.254.254,0,0,1,.322.161Z" transform="translate(6168.151 428.361)"/><path class="e" d="M-6153.008-417.66l-.617,1.352s3.03,4.988,3.966,4.711,2.706-5.679,2.978-7.167-.3-2.722-1.061-2.913-1.362,1.106-1.6,1.659-1.084,4.509-1.084,4.509Z" transform="translate(6167.876 428.352)"/><g transform="translate(3.945 10.043)"><path class="m" d="M-6164.146-417.466a2.242,2.242,0,0,1-.151-.322c-.035-.122.71-.545,1.006-.352S-6163.788-417.652-6164.146-417.466Z" transform="translate(6164.297 418.189)"/></g><g transform="translate(3.899 10.463)"><path class="m" d="M-6164.12-416.963a1.209,1.209,0,0,1-.225-.319c-.037-.122.957-.621,1.256-.429S-6163.758-417.149-6164.12-416.963Z" transform="translate(6164.346 417.754)"/></g><g transform="translate(4.238 10.873)"><path class="m" d="M-6163.767-416.609a1.212,1.212,0,0,1-.226-.319c-.036-.122.71-.546,1.006-.353S-6163.405-416.795-6163.767-416.609Z" transform="translate(6163.994 417.329)"/></g><path class="m" d="M-6154.479-418.91h-.156a1.036,1.036,0,0,1-.217-.023c-.291-.063-1.07-.217-1.131-.062-.074.193,1.127.415,1.127.415s-1.318-.17-1.318.053,1.34.34,1.34.34-1.17-.042-1.191.085,1.437.49,1.437.49-1.181-.255-1.3-.106,1.85.869,1.85.869Z" transform="translate(6167.964 428.262)"/><path class="m" d="M-6163.758-416.593s.645-.364.814-.25-.553.66-.553.66l.085.2S-6163.874-416.342-6163.758-416.593Z" transform="translate(6168.224 428.186)"/></g></g></svg>