<svg xmlns="http://www.w3.org/2000/svg" width="72" height="80" viewBox="0 0 72 80"><defs><style>.a{fill:#ffc0bb;}.b{fill:#fff;}.c{fill:#3660ac;}.d{fill:#e87b50;opacity:0.3;isolation:isolate;}.e{fill:#ed3a61;}.f{fill:#fa5371;}.g{fill:#02ccc0;}.h{fill:#444443;}.i{fill:#333;}.j{fill:#f99893;}.k{fill:#e2fafa;}.l{fill:#1ba5d4;}.m{fill:#040744;}.n{fill:#feb546;}.o{fill:#ff5b7e;}.p{fill:#07085b;}</style></defs><g transform="translate(5966.291 445.068)"><g transform="translate(-5940.491 -427.363)"><path class="a" d="M-5937.585-377.41l-.22,7.2.632,1.146,1.144-.828.842-6.208Z" transform="translate(5942.015 430.897)"/><g transform="translate(1.779 60.132)"><path class="b" d="M-5939.975-369.04l4.394.015a.139.139,0,0,0,.139-.138v-.193a.138.138,0,0,0-.138-.139l-4.394-.015a.138.138,0,0,0-.139.138v.193a.137.137,0,0,0,.137.139Z" transform="translate(5940.112 371.188)"/><path class="c" d="M-5935.65-370.843l.15,1.306c.019.161-.071.308-.191.308l-4.117-.013a.3.3,0,0,1-.269-.193.573.573,0,0,1,.117-.583c.37-.519,1.581-.643,2.176-1.086l1.917.006A.266.266,0,0,1-5935.65-370.843Z" transform="translate(5940.113 371.103)"/><g transform="translate(1.756 0.126)"><path class="b" d="M-5937.582-370.346h0a.091.091,0,0,0,.024-.105.8.8,0,0,0-.842-.527c-.03,0-.05.044-.045.085h0a.056.056,0,0,0,.06.06.687.687,0,0,1,.738.458A.045.045,0,0,0-5937.582-370.346Z" transform="translate(5938.446 370.983)"/></g><g transform="translate(1.327 0.294)"><path class="b" d="M-5937.988-370.187h0a.091.091,0,0,0,.025-.105.8.8,0,0,0-.843-.527c-.029,0-.05.044-.045.085h0a.056.056,0,0,0,.06.06.686.686,0,0,1,.737.458A.046.046,0,0,0-5937.988-370.187Z" transform="translate(5938.853 370.824)"/></g><g transform="translate(0.93 0.449)"><path class="b" d="M-5938.366-370.04h0a.091.091,0,0,0,.024-.105.8.8,0,0,0-.843-.527c-.029,0-.049.044-.045.085h0a.056.056,0,0,0,.06.06.686.686,0,0,1,.737.458A.045.045,0,0,0-5938.366-370.04Z" transform="translate(5939.23 370.677)"/></g><path class="d" d="M-5936.958-369.265c.328-1.053.887-1.169,1.192-1.144l.1.843c.019.161-.071.308-.191.307Z" transform="translate(5940.282 371.14)"/></g><path class="a" d="M-5927.471-378.118l-.737,7.955-.632,1.146-1.144-.828.023-8.476Z" transform="translate(5942.434 430.849)"/><g transform="translate(11.983 60.132)"><path class="b" d="M-5925.894-369.04l-4.394.015a.139.139,0,0,1-.139-.138v-.193a.138.138,0,0,1,.138-.139l4.394-.015a.136.136,0,0,1,.139.137h0v.193a.137.137,0,0,1-.137.139Z" transform="translate(5930.426 371.188)"/><path class="c" d="M-5930.222-370.843l-.151,1.306c-.019.161.073.308.191.308l4.118-.013a.3.3,0,0,0,.269-.193.571.571,0,0,0-.118-.583c-.37-.519-1.58-.643-2.175-1.086l-1.917.006A.262.262,0,0,0-5930.222-370.843Z" transform="translate(5930.43 371.103)"/><g transform="translate(2.02 0.126)"><path class="b" d="M-5928.477-370.346h0a.089.089,0,0,1-.024-.105.794.794,0,0,1,.843-.527c.03,0,.05.044.045.085h0a.056.056,0,0,1-.06.06.685.685,0,0,0-.738.458A.045.045,0,0,1-5928.477-370.346Z" transform="translate(5928.509 370.983)"/></g><g transform="translate(2.447 0.294)"><path class="b" d="M-5928.073-370.187h0a.09.09,0,0,1-.023-.105.8.8,0,0,1,.843-.527c.029,0,.049.044.045.085h0a.056.056,0,0,1-.06.06.686.686,0,0,0-.737.458A.047.047,0,0,1-5928.073-370.187Z" transform="translate(5928.104 370.824)"/></g><g transform="translate(2.846 0.449)"><path class="b" d="M-5927.693-370.04h0a.087.087,0,0,1-.023-.105.794.794,0,0,1,.843-.527c.029,0,.049.044.045.085h0a.056.056,0,0,1-.06.06.685.685,0,0,0-.737.458C-5927.641-370.036-5927.669-370.024-5927.693-370.04Z" transform="translate(5927.725 370.677)"/></g><path class="d" d="M-5929.083-369.265c-.328-1.053-.888-1.169-1.192-1.144l-.1.843c-.019.161.073.308.191.307Z" transform="translate(5930.43 371.14)"/></g><path class="a" d="M-5933.1-417.949a22.789,22.789,0,0,1,5.639-.632s.5,1.827-.378,2.173a15.678,15.678,0,0,0-2.178.967,7.384,7.384,0,0,1-1.461.135,20.546,20.546,0,0,1-1.969-.632,11.7,11.7,0,0,1,0-1.48Z" transform="translate(5942.247 428.695)"/><path class="e" d="M-5941.286-407.408a15.556,15.556,0,0,0,.632,4.31c.567,1.543,1.448,2.583,2.423,2.552a7.565,7.565,0,0,0,2.961-1.607,24.187,24.187,0,0,0,.662-3.5,6.663,6.663,0,0,0-.85-2.626,17.049,17.049,0,0,0-2.173-1.28,12.016,12.016,0,0,1-1.544-1.071Z" transform="translate(5941.829 429.121)"/><path class="c" d="M-5936.231-401.222l-2.362,29.6H-5935l4.442-22.709v22.709h3.5s2.551-21.1,2.929-29.323l-5.575-2.362Z" transform="translate(5941.973 429.512)"/><path class="f" d="M-5938.8-412.27a.165.165,0,0,0-.077.042c-.478.368-2.768,3.036-2.885,4.389-.126,1.459.063,2.057.41,1.931a25.406,25.406,0,0,0,2.552-3.717Z" transform="translate(5941.801 429.033)"/><path class="g" d="M-5935.811-417.473s-2.521.61-4.08,8.88c0,0-.378,2.411.472,2.364s2.221-2.656,2.221-2.816,2.506-6.085,2.317-6.454S-5935.811-417.473-5935.811-417.473Z" transform="translate(5941.898 428.754)"/><path class="g" d="M-5936.311-406.106l-.793,7.951s7.108,2.107,13.219.31l-.519-9.3s2.866,2.069,4.094,1.208c0,0,1.229-10.219-3.338-12.137a23.318,23.318,0,0,0-3.78-.5s-.095,2.173-2.93,2.394-2.552-1.765-2.552-1.765a16.511,16.511,0,0,0-3.055.535c-.5.283-1.3,8.882-1.14,9.449A18.307,18.307,0,0,0-5936.311-406.106Z" transform="translate(5942.051 428.695)"/><path class="f" d="M-5935.562-417.6s-.859,3.458-.639,4.339,1.355-.473,1.355-.473a31.588,31.588,0,0,1,.919-4.14A1.605,1.605,0,0,0-5935.562-417.6Z" transform="translate(5942.099 428.727)"/><path class="a" d="M-5935.38-415.138a.486.486,0,0,0-.624-.288.558.558,0,0,0-.074.035s-.3-.169-.394-.014-.631,2.376-.631,2.376-2.456,5.607-2.583,6.253.394,2.615.834,2.677,2.771-1.228,2.914-2,.316-5.717.316-5.717,1.284-1.64,1.331-1.766.181-.644-.2-.832S-5934.34-415.043-5935.38-415.138Z" transform="translate(5941.913 428.861)"/><path class="h" d="M-5931.285-411.223h0a1.344,1.344,0,0,1,1.344,1.344v2.451a1.345,1.345,0,0,1-1.344,1.344h0a1.345,1.345,0,0,1-1.344-1.344v-2.451A1.345,1.345,0,0,1-5931.285-411.223Z" transform="translate(5942.292 429.089)"/><path class="a" d="M-5929.38-408.873a1.5,1.5,0,0,0,1.37.866c1.315,0,3.745,0,4.441.123.968.165,2.8.793,3.032,1.483s-.948,2.272-6.787.69l-2.788-1.063s-1.812-.283-2.237-.819a2.66,2.66,0,0,1-.512-1.5.163.163,0,0,1,.168-.156.129.129,0,0,1,.049.009,7.041,7.041,0,0,0,2.594.406,4.275,4.275,0,0,1,.678-1.071c.235-.142-.1.787-.032.977A.338.338,0,0,0-5929.38-408.873Z" transform="translate(5942.279 429.158)"/><path class="i" d="M-5934.223-424.415l.3,1.909.643-2.544s-.9-.437-.94-.278A6.952,6.952,0,0,0-5934.223-424.415Z" transform="translate(5942.206 428.332)"/><path class="a" d="M-5929.147-420.511l.293,3.477-3.065-.146.354-3.075Z" transform="translate(5942.33 428.592)"/><path class="j" d="M-5931.743-418.8l.168-1.462,2.423-.251.105,1.2A2.434,2.434,0,0,1-5931.743-418.8Z" transform="translate(5942.339 428.592)"/><path class="j" d="M-5933.338-422.652a.6.6,0,0,1-.446.716.6.6,0,0,1-.717-.447.6.6,0,0,1,.322-.672A.665.665,0,0,1-5933.338-422.652Z" transform="translate(5942.191 428.454)"/><path class="a" d="M-5933.39-420.8a5.8,5.8,0,0,1-.4-1.409c-.014-.095-.036-.188-.058-.28a3.111,3.111,0,0,1,2.3-3.753,3.111,3.111,0,0,1,3.752,2.3,3.029,3.029,0,0,1,.079.529.67.67,0,0,1,.6-.085.937.937,0,0,1,.276,1.3.939.939,0,0,1-.915.418.622.622,0,0,1-.145-.079,2.918,2.918,0,0,1-2.726,2.853A2.875,2.875,0,0,1-5933.39-420.8Z" transform="translate(5942.222 428.28)"/><path class="j" d="M-5931.631-423.37c-.006.178-.007.352-.017.527a1.144,1.144,0,0,1-.1.462l-.015.019-.017.023a.4.4,0,0,0-.047.067.353.353,0,0,0-.047.163.37.37,0,0,0,.137.288.6.6,0,0,0,.534.105.739.739,0,0,1-.437-.2.24.24,0,0,1-.064-.179.211.211,0,0,1,.03-.084.273.273,0,0,1,.028-.039l.022-.03.025-.035a.7.7,0,0,0,.084-.284,1.284,1.284,0,0,0,0-.274A1.832,1.832,0,0,0-5931.631-423.37Z" transform="translate(5942.333 428.439)"/><path class="i" d="M-5930.666-423.132a.272.272,0,0,0,.286.258.272.272,0,0,0,.258-.284.272.272,0,0,0-.285-.258h0A.272.272,0,0,0-5930.666-423.132Z" transform="translate(5942.397 428.436)"/><path class="i" d="M-5932.871-422.886a.273.273,0,0,0,.284.259.272.272,0,0,0,.259-.283.271.271,0,0,0-.283-.259h0A.272.272,0,0,0-5932.871-422.886Z" transform="translate(5942.279 428.45)"/><path class="j" d="M-5930.129-421.4a1.985,1.985,0,0,1-.225.171,2.079,2.079,0,0,1-.242.14,1.712,1.712,0,0,1-.527.162,1.469,1.469,0,0,1-.546-.04,2.065,2.065,0,0,1-.509-.231,1.753,1.753,0,0,0,.232.164,1.62,1.62,0,0,0,.261.119,1.355,1.355,0,0,0,.282.062,1.476,1.476,0,0,0,.29,0,1.509,1.509,0,0,0,.544-.184A1.644,1.644,0,0,0-5930.129-421.4Z" transform="translate(5942.315 428.544)"/><path class="i" d="M-5930.99-423.711a2.731,2.731,0,0,1,.4-.095,1.37,1.37,0,0,1,.377-.008,1.265,1.265,0,0,1,.362.1c.063.019.117.057.18.083s.118.07.187.1a1.034,1.034,0,0,0-.12-.181.889.889,0,0,0-.165-.147.861.861,0,0,0-.421-.162.916.916,0,0,0-.447.059A.836.836,0,0,0-5930.99-423.711Z" transform="translate(5942.379 428.403)"/><path class="i" d="M-5932.05-423.591a.814.814,0,0,0-.4-.183.9.9,0,0,0-.449.028.874.874,0,0,0-.382.24.977.977,0,0,0-.132.177,1.235,1.235,0,0,0-.083.2c.061-.043.105-.092.165-.134a1.539,1.539,0,0,1,.161-.116,1.245,1.245,0,0,1,.337-.165,1.345,1.345,0,0,1,.372-.065A2.757,2.757,0,0,1-5932.05-423.591Z" transform="translate(5942.246 428.416)"/><path class="i" d="M-5934.252-426.072s-.914.029.046-.743,3.533-1.678,5.182-.807c0,0,.33-.7.807-.534s-.31.65-.31.65.609-.02.794.279c.137.221-.236.231-.439.22.346.059,1.676.9,1.008,3.582a14.166,14.166,0,0,1-1.589-2.011s-3.09,1.716-2.784.352c0,0-3.2,2-2.747.348C-5934.282-424.738-5935.519-424.648-5934.252-426.072Z" transform="translate(5942.174 428.182)"/><path class="i" d="M-5927.454-423.5a.62.62,0,0,0-.526.144c-.275.218-.245.986-.245.986s-1.313.843-1.174-2.739c.147-3.813,1.1.306,1.1.306Z" transform="translate(5942.464 428.259)"/><g transform="translate(17.429 11.252)"><path class="k" d="M-5925.094-407.558c0-.026-.062-2.7-.156-5.658-.094-2.976.761-4.232.8-4.285l.087.061a7.523,7.523,0,0,0-.777,4.22c.094,2.958.155,5.632.155,5.659Z" transform="translate(5925.257 417.501)"/></g></g><g transform="translate(-5966.291 -445.068)"><g transform="translate(0 23.529)"><path class="l" d="M-5947.188-414.734h-17.979a1.124,1.124,0,0,0-1.124,1.124h0v7.419a1.124,1.124,0,0,0,1.124,1.124h14.154a24.428,24.428,0,0,0,1.7,2.23,12.2,12.2,0,0,0-.2-2.23h2.317a1.124,1.124,0,0,0,1.125-1.124h0v-7.419a1.123,1.123,0,0,0-1.125-1.124Z" transform="translate(5966.291 414.734)"/><path class="b" d="M-5959.667-410a2.819,2.819,0,0,1-2.819,2.819,2.82,2.82,0,0,1-2.819-2.819,2.82,2.82,0,0,1,2.819-2.819,2.819,2.819,0,0,1,2.819,2.819Z" transform="translate(5966.344 414.837)"/><path class="m" d="M-5964.018-409.969s-.279-1.147.387-1.58a1.938,1.938,0,0,1,1.862-.28,1.557,1.557,0,0,1,.738,1.782l-1.791-.449Z" transform="translate(5966.41 414.883)"/><g transform="translate(1.945 3.316)"><rect class="a" width="0.828" height="0.826" transform="translate(1.531 2.943)"/><path class="j" d="M-5962.162-408.3v-.5h-.828v.421A1.215,1.215,0,0,0-5962.162-408.3Z" transform="translate(5964.522 411.735)"/><path class="a" d="M-5960.781-410.122a.307.307,0,0,0-.277.011,1.474,1.474,0,0,0-1.475-1.475,1.475,1.475,0,0,0-1.475,1.475.306.306,0,0,0-.277-.011.427.427,0,0,0-.065.6.427.427,0,0,0,.435.149.27.27,0,0,0,.063-.042,1.328,1.328,0,0,0,1.493,1.141,1.328,1.328,0,0,0,1.141-1.141.3.3,0,0,0,.062.042.43.43,0,0,0,.519-.314.425.425,0,0,0-.149-.435Z" transform="translate(5964.444 411.586)"/><path class="b" d="M-5962.068-409.282a.517.517,0,0,1-.687.25.53.53,0,0,1-.236-.221Z" transform="translate(5964.522 411.709)"/></g><path class="m" d="M-5964.024-410.1a4.049,4.049,0,0,0,1.557-.876,3.211,3.211,0,0,1-.234.766c.032.021,1.082-.49,1.225-.961s-1.074-.641-1.074-.641-.421.177-.438.188-.412.056-.457.156c-.058.13-.334.141-.334.141l-.174.362-.123.381Z" transform="translate(5966.41 414.89)"/><path class="m" d="M-5964.87-411.544a1.2,1.2,0,0,0,.8.053c.632-.194.883-.119.967-.072a.213.213,0,0,0,.166.021c.062-.021.12-.077.1-.219a1.144,1.144,0,0,0-.489-.943A2.828,2.828,0,0,0-5964.87-411.544Z" transform="translate(5966.367 414.843)"/><g transform="translate(2.846 2.94)"><path class="n" d="M-5963.578-411.624h0a.054.054,0,0,1,.011-.076h0a1.477,1.477,0,0,1,.7-.242.053.053,0,0,1,.056.052v0h0a.053.053,0,0,1-.05.054,1.391,1.391,0,0,0-.65.225A.054.054,0,0,1-5963.578-411.624Z" transform="translate(5963.589 411.943)"/></g><rect class="b" width="3.777" height="0.49" rx="0.232" transform="translate(7.227 2.41)"/><path class="b" d="M-5959.187-411.219h2.062a.243.243,0,0,1,.245.244h0a.244.244,0,0,1-.245.244h-2.062a.245.245,0,0,1-.245-.244h0a.244.244,0,0,1,.245-.244Z" transform="translate(5966.658 414.922)"/><rect class="b" width="3.139" height="0.49" rx="0.232" transform="translate(10.219 3.703)"/><path class="b" d="M-5952.95-411.219h3.742a.243.243,0,0,1,.244.244h0a.244.244,0,0,1-.244.244h-3.742a.246.246,0,0,1-.245-.243h0a.244.244,0,0,1,.244-.245Z" transform="translate(5966.992 414.922)"/><path class="b" d="M-5955.008-412.446h5.91a.243.243,0,0,1,.244.244h0a.243.243,0,0,1-.244.244h-5.91a.246.246,0,0,1-.244-.243h0a.244.244,0,0,1,.243-.245Z" transform="translate(5966.881 414.856)"/><path class="b" d="M-5959.187-408.814h10.312a.243.243,0,0,1,.244.244h0a.244.244,0,0,1-.244.244h-10.312a.246.246,0,0,1-.245-.243h0a.244.244,0,0,1,.244-.245Z" transform="translate(5966.658 415.051)"/><path class="b" d="M-5959.187-409.992h5.09a.243.243,0,0,1,.249.24v0h0a.244.244,0,0,1-.245.244h-5.095a.245.245,0,0,1-.245-.244h0a.244.244,0,0,1,.245-.244Z" transform="translate(5966.658 414.988)"/><path class="b" d="M-5953.115-409.992h3.916a.243.243,0,0,1,.244.244h0a.244.244,0,0,1-.244.244h-3.916a.246.246,0,0,1-.245-.243h0a.244.244,0,0,1,.244-.245Z" transform="translate(5966.983 414.988)"/></g><g transform="translate(51.357 29.066)"><path class="o" d="M-5916.4-409.478h18.288a1.145,1.145,0,0,1,1.145,1.144h0v7.547a1.145,1.145,0,0,1-1.145,1.144h-14.4a24.781,24.781,0,0,1-1.733,2.269,12.481,12.481,0,0,1,.2-2.269h-2.356a1.145,1.145,0,0,1-1.144-1.144h0v-7.547a1.144,1.144,0,0,1,1.144-1.144Z" transform="translate(5917.542 409.478)"/><path class="b" d="M-5904.457-404.72a2.867,2.867,0,0,0,2.812,2.922,2.867,2.867,0,0,0,2.922-2.812,2.866,2.866,0,0,0-2.811-2.922c-.037,0-.074,0-.11,0A2.868,2.868,0,0,0-5904.457-404.72Z" transform="translate(5918.241 409.582)"/><path class="m" d="M-5900.157-404.637s.285-1.166-.393-1.6a1.974,1.974,0,0,0-1.9-.286,1.58,1.58,0,0,0-.747,1.813l1.818-.457Z" transform="translate(5918.306 409.629)"/><g transform="translate(14.709 3.377)"><rect class="a" width="0.842" height="0.841" transform="translate(1.489 2.984)"/><path class="j" d="M-5902.167-402.935v-.5h.844v.429A1.24,1.24,0,0,1-5902.167-402.935Z" transform="translate(5903.655 406.424)"/><path class="a" d="M-5903.417-404.793a.312.312,0,0,1,.281.012,1.5,1.5,0,0,1,1.508-1.491,1.5,1.5,0,0,1,1.49,1.491.314.314,0,0,1,.282-.012.436.436,0,0,1,.067.611.437.437,0,0,1-.443.151.3.3,0,0,1-.063-.043,1.351,1.351,0,0,1-1.506,1.177,1.352,1.352,0,0,1-1.178-1.177.3.3,0,0,1-.062.043.436.436,0,0,1-.526-.319.435.435,0,0,1,.15-.442Z" transform="translate(5903.58 406.272)"/><path class="b" d="M-5902.259-403.937a.528.528,0,0,0,.7.252.523.523,0,0,0,.237-.223Z" transform="translate(5903.65 406.397)"/></g><path class="m" d="M-5900.182-404.768a4.123,4.123,0,0,1-1.58-.891,3.363,3.363,0,0,0,.238.779c-.033.021-1.1-.5-1.246-.978s1.093-.651,1.093-.651l.445.191c.024.011.421.057.465.159.059.132.34.143.34.143l.177.369.125.388Z" transform="translate(5918.332 409.637)"/><path class="m" d="M-5899.351-406.238a1.212,1.212,0,0,1-.815.054c-.643-.2-.9-.121-.983-.073a.214.214,0,0,1-.168.022c-.063-.021-.122-.079-.1-.223a1.171,1.171,0,0,1,.5-.959A2.858,2.858,0,0,1-5899.351-406.238Z" transform="translate(5918.404 409.588)"/><g transform="translate(16.884 2.987)"><path class="n" d="M-5900.73-406.319h0a.054.054,0,0,0-.011-.077h0a1.5,1.5,0,0,0-.715-.247.054.054,0,0,0-.057.053v0h0a.055.055,0,0,0,.052.055,1.408,1.408,0,0,1,.662.229A.054.054,0,0,0-5900.73-406.319Z" transform="translate(5901.515 406.643)"/></g><path class="b" d="M-5905.043-406.657h-3.343a.249.249,0,0,1-.249-.249h0a.248.248,0,0,1,.248-.25h3.344a.248.248,0,0,1,.249.249h0a.248.248,0,0,1-.248.25Z" transform="translate(5918.019 409.602)"/><path class="b" d="M-5905.106-405.409h-2.1a.249.249,0,0,1-.249-.249h0a.248.248,0,0,1,.249-.249h2.1a.248.248,0,0,1,.249.248h0a.248.248,0,0,1-.248.25Z" transform="translate(5918.081 409.669)"/><rect class="b" width="3.193" height="0.498" rx="0.236" transform="translate(6.99 3.762)"/><rect class="b" width="4.305" height="0.498" rx="0.236" transform="translate(2.238 3.762)"/><path class="b" d="M-5909.157-406.657h-6.011a.25.25,0,0,1-.25-.25h0a.248.248,0,0,1,.249-.249h6.012a.248.248,0,0,1,.249.249h0a.249.249,0,0,1-.249.249Z" transform="translate(5917.656 409.602)"/><path class="b" d="M-5904.68-402.963h-10.488a.249.249,0,0,1-.249-.249h0a.248.248,0,0,1,.249-.249h10.488a.248.248,0,0,1,.249.249h0a.249.249,0,0,1-.249.249Z" transform="translate(5917.656 409.8)"/><path class="b" d="M-5904.95-404.161h-5.178a.249.249,0,0,1-.249-.249h0a.248.248,0,0,1,.249-.249h5.178a.248.248,0,0,1,.249.249h0a.249.249,0,0,1-.249.249Z" transform="translate(5917.925 409.736)"/><rect class="b" width="4.48" height="0.498" rx="0.236" transform="translate(2.239 5.076)"/></g><g transform="translate(3.599)"><path class="n" d="M-5961.58-437.068h22.037a1.294,1.294,0,0,1,1.295,1.295h0v9.181a1.3,1.3,0,0,1-1.295,1.295h-2.288a12.867,12.867,0,0,1,.21,2.461,25.917,25.917,0,0,1-1.883-2.461h-18.076a1.3,1.3,0,0,1-1.295-1.295h0v-9.181a1.3,1.3,0,0,1,1.295-1.295Z" transform="translate(5962.875 437.068)"/><path class="b" d="M-5955.415-431.285a3.246,3.246,0,0,1-3.246,3.246,3.246,3.246,0,0,1-3.246-3.246,3.246,3.246,0,0,1,3.246-3.246h0A3.245,3.245,0,0,1-5955.415-431.285Z" transform="translate(5962.927 437.204)"/><g transform="translate(2.077 3.331)"><rect class="a" width="0.953" height="0.951" transform="translate(1.751 4.222)"/><path class="j" d="M-5958.292-429.327v-.571h-.949v.486A1.4,1.4,0,0,0-5958.292-429.327Z" transform="translate(5960.992 434.121)"/><path class="a" d="M-5956.7-431.43a.349.349,0,0,0-.314.013,1.7,1.7,0,0,0-1.7-1.692,1.7,1.7,0,0,0-1.691,1.692.352.352,0,0,0-.316-.013.491.491,0,0,0-.067.693.493.493,0,0,0,.489.169.421.421,0,0,0,.071-.05,1.529,1.529,0,0,0,1.7,1.335,1.531,1.531,0,0,0,1.336-1.335.355.355,0,0,0,.071.05.494.494,0,0,0,.589-.373.493.493,0,0,0-.167-.489Z" transform="translate(5960.903 433.949)"/><path class="p" d="M-5959.886-433.441a2.29,2.29,0,0,1,1.565-.339c1.087.065,1.293.632,1.356,1.442l-.063.964a4.225,4.225,0,0,1-.65-1.095s-.609.683-.873.6.105-.573.105-.573-1.24,1.067-1.971,1.065c0,0-.387-1.248.156-1.707,0,0-.409.02-.43-.061s.195-.2.588-.155c0,0-.28-.548-.123-.6S-5959.886-433.441-5959.886-433.441Z" transform="translate(5960.915 433.906)"/><path class="b" d="M-5958.179-430.462a.6.6,0,0,1-.79.289.606.606,0,0,1-.273-.256Z" transform="translate(5960.992 434.09)"/></g><path class="b" d="M-5954.4-434.556h12.353a.283.283,0,0,1,.283.282h0a.283.283,0,0,1-.283.282H-5954.4a.282.282,0,0,1-.283-.282h0A.282.282,0,0,1-5954.4-434.556Z" transform="translate(5963.313 437.202)"/><path class="b" d="M-5954.4-433.144h2.486a.282.282,0,0,1,.287.278v0h0a.282.282,0,0,1-.282.282h-2.491a.282.282,0,0,1-.283-.282h0A.282.282,0,0,1-5954.4-433.144Z" transform="translate(5963.313 437.278)"/><path class="b" d="M-5950.412-433.144h8.15a.282.282,0,0,1,.283.281h0a.283.283,0,0,1-.283.282h-8.15a.282.282,0,0,1-.283-.282h0A.281.281,0,0,1-5950.412-433.144Z" transform="translate(5963.526 437.278)"/><path class="b" d="M-5954.4-431.731h6.109a.281.281,0,0,1,.282.281h0a.282.282,0,0,1-.282.282h-6.109a.282.282,0,0,1-.283-.282h0A.282.282,0,0,1-5954.4-431.731Z" transform="translate(5963.313 437.353)"/><path class="b" d="M-5947.141-431.731h4.7a.282.282,0,0,1,.281.282h0a.283.283,0,0,1-.282.282h-4.7a.282.282,0,0,1-.282-.282h0A.282.282,0,0,1-5947.141-431.731Z" transform="translate(5963.702 437.353)"/><path class="b" d="M-5954.4-430.318h12.353a.283.283,0,0,1,.283.282h0a.283.283,0,0,1-.283.282H-5954.4a.282.282,0,0,1-.283-.282h0A.282.282,0,0,1-5954.4-430.318Z" transform="translate(5963.313 437.429)"/></g><g transform="translate(47.371 2.251)"><path class="g" d="M-5897.993-434.931h-22.037a1.3,1.3,0,0,0-1.294,1.295h0v9.181a1.3,1.3,0,0,0,1.294,1.295h2.289a13.067,13.067,0,0,0-.21,2.461,25.588,25.588,0,0,0,1.883-2.461h18.078a1.3,1.3,0,0,0,1.295-1.295h0v-9.181a1.3,1.3,0,0,0-1.295-1.295Z" transform="translate(5921.325 434.931)"/><circle class="b" cx="3.246" cy="3.246" r="3.246" transform="translate(1.022 2.672)"/><g transform="translate(2.077 3.331)"><rect class="a" width="0.953" height="0.951" transform="translate(1.751 4.222)"/><path class="j" d="M-5916.74-427.191v-.57h-.948v.486A1.4,1.4,0,0,0-5916.74-427.191Z" transform="translate(5919.442 431.984)"/><path class="a" d="M-5915.147-429.292a.353.353,0,0,0-.316.013,1.7,1.7,0,0,0-1.7-1.7,1.7,1.7,0,0,0-1.7,1.7.352.352,0,0,0-.316-.013.493.493,0,0,0-.067.693.5.5,0,0,0,.489.169.346.346,0,0,0,.072-.049,1.53,1.53,0,0,0,1.7,1.335,1.528,1.528,0,0,0,1.334-1.335.421.421,0,0,0,.072.049.494.494,0,0,0,.59-.373.493.493,0,0,0-.168-.489Z" transform="translate(5919.353 431.812)"/><path class="p" d="M-5918.335-431.3a2.288,2.288,0,0,1,1.565-.339c1.087.065,1.294.632,1.356,1.442l-.064.964a4.182,4.182,0,0,1-.65-1.095s-.609.683-.874.6.105-.573.105-.573-1.24,1.067-1.97,1.065c0,0-.387-1.248.156-1.707,0,0-.409.02-.43-.061s.195-.2.588-.155c0,0-.28-.548-.124-.6S-5918.335-431.3-5918.335-431.3Z" transform="translate(5919.365 431.769)"/><path class="b" d="M-5916.626-428.325a.6.6,0,0,1-.791.289.6.6,0,0,1-.272-.256Z" transform="translate(5919.442 431.953)"/></g><path class="b" d="M-5912.852-432.419h12.354a.282.282,0,0,1,.282.282h0a.282.282,0,0,1-.282.282h-12.354a.282.282,0,0,1-.282-.282h0A.282.282,0,0,1-5912.852-432.419Z" transform="translate(5921.763 435.065)"/><path class="b" d="M-5912.852-431.007h2.487a.282.282,0,0,1,.287.278v0h0a.282.282,0,0,1-.283.282h-2.491a.282.282,0,0,1-.282-.282h0A.282.282,0,0,1-5912.852-431.007Z" transform="translate(5921.763 435.141)"/><path class="b" d="M-5908.863-431.007h8.152a.282.282,0,0,1,.282.282h0a.282.282,0,0,1-.282.282h-8.152a.282.282,0,0,1-.282-.282h0A.282.282,0,0,1-5908.863-431.007Z" transform="translate(5921.977 435.141)"/><path class="b" d="M-5912.852-429.594h6.111a.282.282,0,0,1,.282.282h0a.282.282,0,0,1-.282.282h-6.111a.282.282,0,0,1-.282-.282h0A.282.282,0,0,1-5912.852-429.594Z" transform="translate(5921.763 435.216)"/><path class="b" d="M-5905.589-429.594h4.7a.282.282,0,0,1,.281.282h0a.282.282,0,0,1-.282.282h-4.7a.282.282,0,0,1-.282-.282h0A.282.282,0,0,1-5905.589-429.594Z" transform="translate(5922.151 435.216)"/><path class="b" d="M-5912.852-428.181h12.354a.282.282,0,0,1,.282.282h0a.282.282,0,0,1-.282.282h-12.354a.282.282,0,0,1-.282-.282h0A.282.282,0,0,1-5912.852-428.181Z" transform="translate(5921.763 435.292)"/></g></g></g></svg>